<svg width="57" height="63" viewBox="0 0 57 63" fill="none" xmlns="http://www.w3.org/2000/svg">
<rect width="57" height="63" rx="3" fill="#73830A"/>
<rect x="9.00024" y="22" width="41" height="25" fill="black"/>
<path d="M35.802 21.4882L50.073 21.6958L42.7907 31.6929L35.802 21.4882Z" fill="white"/>
<path d="M50.0002 47C41.5002 47 38.7698 47 28.0002 47C17.2307 47 9.00024 49.9183 9.00024 45.5C9.00024 41.0817 18.7307 32 29.5002 32C40.2698 32 50.0002 42.5817 50.0002 47Z" fill="#771515"/>
<path d="M35.802 47.5113L50.073 47.3037L42.7907 37.3066L35.802 47.5113Z" fill="white"/>
<path d="M22.1702 21.5258L36.4411 21.7334L29.1589 31.7305L22.1702 21.5258Z" fill="white"/>
<path d="M22.1702 47.4737L36.4411 47.2662L29.1589 37.269L22.1702 47.4737Z" fill="white"/>
<path d="M8.53836 21.5629L22.8093 21.7705L15.5271 31.7676L8.53836 21.5629Z" fill="white"/>
<path d="M8.53836 47.4366L22.8093 47.229L15.5271 37.2319L8.53836 47.4366Z" fill="white"/>
</svg>
