<svg width="403" height="166" viewBox="0 0 403 166" fill="none" xmlns="http://www.w3.org/2000/svg">
<rect x="1" width="403" height="166" fill="#F0F0F0"/>
<path d="M154 65H155V75H154V65ZM165 68H168V69H165V68ZM164 69H165V70H164V69ZM168 69H169V75H168V74H167V73H168V72H164V71H168V69ZM163 72H164V74H163V72ZM164 74H167V75H164V74ZM171 68H172V69H173V70H172V75H171V68ZM173 68H174V69H173V68ZM175 68H177V69H175V68ZM174 69H175V75H174V69ZM177 69H178V75H177V69ZM186 64H187V69H188V70H187V75H186V64ZM188 68H191V69H188V68ZM191 69H192V75H191V69ZM194 68H195V74H194V68ZM199 68H200V75H199V74H198V73H199V68ZM195 74H198V75H195V74ZM202 68H203V69H204V70H203V75H202V68ZM204 68H207V69H204V68ZM207 69H208V75H207V69ZM212 68H216V69H215V70H214V69H212V68ZM211 69H212V70H211V69ZM210 70H211V73H210V70ZM215 70H216V73H215V70ZM211 73H215V74H212V75H216V76H211V73ZM210 76H211V78H210V76ZM216 76H217V78H216V76ZM211 78H216V79H211V78ZM219 68H220V69H221V70H220V75H219V68ZM221 68H223V69H221V68ZM225 68H226V70H225V68ZM230 68H231V71H230V68ZM226 70H227V72H226V70ZM229 71H230V74H229V71ZM227 72H228V74H227V72ZM228 74H229V76H228V74ZM227 76H228V77H227V76ZM225 77H227V78H225V77ZM233 73H234V75H233V73ZM236 73H237V75H236V73ZM239 73H240V75H239V73Z" fill="black"/>
<path d="M157.5 85H163.5V86.5H165V88H166.5V97H165V98.5H163.5V100H157.5V98.5H156V97H154.5V88H156V86.5H157.5V85ZM159 86.5V88H157.5V97H159V98.5H162V97H163.5V88H162V86.5H159ZM169.5 85H177V86.5H178.5V89.5H177V91H175.5V94H177V97H178.5V100H175.5V97H174V94H172.5V92.5H171V100H168V86.5H169.5V85ZM171 86.5V91H174V89.5H175.5V86.5H171ZM180 85H186V86.5H183V98.5H186V100H180V85ZM186 86.5H189V88H190.5V89.5H192V95.5H190.5V97H189V98.5H186V97H187.5V95.5H189V89.5H187.5V88H186V86.5ZM193.5 85H202.5V86.5H196.5V91H201V92.5H196.5V98.5H202.5V100H193.5V85ZM205.5 85H213V86.5H214.5V89.5H213V91H211.5V94H213V97H214.5V100H211.5V97H210V94H208.5V92.5H207V100H204V86.5H205.5V85ZM207 86.5V91H210V89.5H211.5V86.5H207ZM226.5 85H235.5V86.5H229.5V91H234V92.5H229.5V100H226.5V85ZM240 85H246V86.5H247.5V88H249V97H247.5V98.5H246V100H240V98.5H238.5V97H237V88H238.5V86.5H240V85ZM241.5 86.5V88H240V97H241.5V98.5H244.5V97H246V88H244.5V86.5H241.5ZM252 85H259.5V86.5H261V89.5H259.5V91H258V94H259.5V97H261V100H258V97H256.5V94H255V92.5H253.5V100H250.5V86.5H252V85ZM253.5 86.5V91H256.5V89.5H258V86.5H253.5ZM273 85H274.5V86.5H276V88H277.5V89.5H279V91H280.5V89.5H282V88H283.5V86.5H285V85H286.5V100H283.5V91H282V92.5H280.5V94H279V92.5H277.5V91H276V100H273V85ZM288 85H297V86.5H291V91H295.5V92.5H291V98.5H297V100H288V85ZM309 85H312V88H313.5V91H315V94H316.5V85H319.5V100H316.5V98.5H315V95.5H313.5V92.5H312V100H309V85ZM324 85H330V86.5H331.5V88H333V97H331.5V98.5H330V100H324V98.5H322.5V97H321V88H322.5V86.5H324V85ZM325.5 86.5V88H324V97H325.5V98.5H328.5V97H330V88H328.5V86.5H325.5ZM334.5 85H337.5V92.5H339V91H340.5V89.5H342V91H343.5V92.5H345V85H348V94H346.5V100H343.5V95.5H342V94H340.5V95.5H339V100H336V94H334.5V85Z" fill="black"/>
<rect width="124" height="165" fill="#3A4205"/>
<rect x="106" y="71" width="2" height="2" fill="#F7FFC5"/>
<rect x="13" y="70" width="2" height="2" fill="#F7FFC5"/>
<rect x="108" y="74" width="2" height="2" fill="#F7FFC5"/>
<rect x="15" y="73" width="2" height="2" fill="#F7FFC5"/>
<rect x="110" y="71" width="2" height="2" fill="#F7FFC5"/>
<rect x="17" y="70" width="2" height="2" fill="#F7FFC5"/>
<rect x="19.3314" y="80.7725" width="86.5147" height="52.7556" fill="black"/>
<path d="M75.8866 79.6921L106 80.1297L90.6334 101.227L75.8866 79.6921Z" fill="white"/>
<path d="M105.846 133.528C87.91 133.528 82.4573 132.65 59.7323 132.65C37.0073 132.65 15.8791 137.964 19.6401 129.485C19.6401 120.161 39.8637 101.875 62.5887 101.875C85.3137 101.875 105.846 124.205 105.846 133.528Z" fill="#771515"/>
<path d="M75.886 134.608L106 134.169L90.6329 113.073L75.886 134.608Z" fill="white"/>
<path d="M47.1216 79.7716L77.2358 80.2098L61.8685 101.307L47.1216 79.7716Z" fill="white"/>
<path d="M47.1218 134.528L77.2359 134.089L61.8686 112.993L47.1218 134.528Z" fill="white"/>
<path d="M18.3561 79.8492L48.4703 80.2875L33.103 101.384L18.3561 79.8492Z" fill="white"/>
<path d="M18.3561 134.45L48.4703 134.012L33.103 112.915L18.3561 134.45Z" fill="white"/>
<rect x="26" y="30" width="33" height="38" fill="white"/>
<rect x="64" y="30" width="33" height="38" fill="white"/>
<rect x="39" y="49" width="10" height="11" fill="black"/>
<rect x="73" y="49" width="10" height="11" fill="black"/>
</svg>
