<svg width="30" height="30" viewBox="0 0 30 30" fill="none" xmlns="http://www.w3.org/2000/svg">
<path d="M28.9204 15.4287L28.4357 15.2886L28.9204 15.4287ZM28.92 15.8085L28.4338 15.9432L28.92 15.8085ZM28.9735 16.0018L29.4598 15.8672L28.9735 16.0018ZM29.027 16.1951L29.5133 16.0605L29.027 16.1951ZM29.0994 16.584L28.5972 16.6323V16.6323L29.0994 16.584ZM29.1182 16.7797L29.6204 16.7314V16.7314L29.1182 16.7797ZM29.137 16.9753L28.6348 17.0236L29.137 16.9753ZM29.0186 17.3384L28.6284 17.0185L29.0186 17.3384ZM28.7441 17.6732L28.3539 17.3533L28.7441 17.6732ZM28.6148 18.0366L28.1107 18.057L28.6148 18.0366ZM28.6307 18.4286L29.1348 18.4081L28.6307 18.4286ZM28.5761 18.8038L29.0524 18.9702L28.5761 18.8038ZM28.4508 19.1624L27.9745 18.9961L28.4508 19.1624ZM28.2776 19.5019L27.8624 19.2152L28.2776 19.5019ZM28.0564 19.8221L28.4716 20.1088L28.0564 19.8221ZM27.9269 20.1789L28.4291 20.2274L27.9269 20.1789ZM27.8889 20.5721L27.3867 20.5236L27.8889 20.5721ZM27.7358 20.913L27.3662 20.5695L27.7358 20.913ZM27.4677 21.2016L27.8373 21.545L27.4677 21.2016ZM27.3163 21.5528L26.8135 21.5106L27.3163 21.5528ZM27.2816 21.9666L27.7843 22.0088L27.2816 21.9666ZM27.1764 22.3451L27.6254 22.5751L27.1764 22.3451ZM27.0006 22.6882L26.5516 22.4582L27.0006 22.6882ZM26.7171 22.9537L26.9355 23.4085L26.7171 22.9537ZM26.3257 23.1417L26.1073 22.6868L26.3257 23.1417ZM26.0741 23.4321L25.5888 23.2942L26.0741 23.4321ZM26.0183 23.6287L25.5329 23.4907L26.0183 23.6287ZM25.9624 23.8252L26.4477 23.9631L25.9624 23.8252ZM25.716 24.1053L25.9188 24.5673L25.716 24.1053ZM25.3349 24.2727L25.132 23.8107L25.3349 24.2727ZM24.7338 24.7355L24.3915 24.3648L24.7338 24.7355ZM24.453 24.9794L24.1338 24.5887L24.453 24.9794ZM24.1653 25.2145L23.846 24.8238L24.1653 25.2145ZM23.9011 25.4787L23.511 25.1587L23.9011 25.4787ZM23.6604 25.772L24.0505 26.092L23.6604 25.772ZM23.3863 26.025L23.0992 25.6101L23.3863 26.025ZM23.0786 26.2379L22.7916 25.8229L23.0786 26.2379ZM22.7965 26.4915L23.1769 26.823V26.823L22.7965 26.4915ZM22.54 26.7858L22.1596 26.4543V26.4543L22.54 26.7858ZM22.0848 27.125L21.8293 26.6899L22.0848 27.125ZM21.9213 27.221L22.1768 27.656L21.9213 27.221ZM21.5742 27.3726L21.428 26.8897L21.5742 27.3726ZM21.2069 27.4837L21.3531 27.9667L21.2069 27.4837ZM20.737 27.8271L21.0948 28.1829L20.737 27.8271ZM20.5939 27.9709L20.2362 27.6151L20.5939 27.9709ZM20.2632 28.1586L20.3778 28.6499L20.2632 28.1586ZM19.8878 28.2461L19.7732 27.7548L19.8878 28.2461ZM19.5277 28.3766L19.301 27.9259L19.5277 28.3766ZM19.1829 28.55L19.4095 29.0008L19.1829 28.55ZM18.8057 28.6046L18.884 28.1062L18.8057 28.6046ZM18.3962 28.5403L18.318 29.0388L18.3962 28.5403ZM18.0288 28.6574L17.6877 28.2857L18.0288 28.6574ZM17.7035 28.956L18.0446 29.3277L17.7035 28.956ZM17.3391 29.0511L17.47 28.5638L17.3391 29.0511ZM17.1375 28.9969L17.0066 29.4842L17.1375 28.9969ZM16.9358 28.9427L17.0667 28.4554L16.9358 28.9427ZM16.5448 28.8852L16.5359 29.3897L16.5448 28.8852ZM16.1662 28.8785L16.1752 28.374L16.1662 28.8785ZM15.4136 28.8265L15.3703 29.3292L15.4136 28.8265ZM15.0377 28.8636L14.9003 28.3781L15.0377 28.8636ZM14.6613 28.9701L14.7987 29.4556L14.6613 28.9701ZM14.28 29.0671L14.3915 29.5592L14.28 29.0671ZM13.8939 29.1546L14.0054 29.6467L13.8939 29.1546ZM13.5242 29.0746L13.2346 29.4878L13.5242 29.0746ZM13.3476 28.9508L13.058 29.364L13.3476 28.9508ZM13.171 28.827L13.4605 28.4139L13.171 28.827ZM12.8098 28.6773L12.7396 29.177L12.8098 28.6773ZM12.4406 28.6255L12.5108 28.1258L12.4406 28.6255ZM12.0702 28.5743L12.0024 29.0743L12.0702 28.5743ZM11.6987 28.5239L11.7665 28.0239L11.6987 28.5239ZM11.3099 28.5226L11.251 28.0215L11.3099 28.5226ZM10.5452 28.4624L10.2191 28.8474L10.5452 28.4624ZM10.234 28.1989L10.5601 27.8139L10.234 28.1989ZM9.87276 28.0716L9.88377 28.5761L9.87276 28.0716ZM9.4614 28.0806L9.45039 27.5762L9.4614 28.0806ZM9.10162 27.9643L8.79025 28.3613L9.10162 27.9643ZM8.79343 27.7226L9.1048 27.3255L8.79343 27.7226ZM8.46048 27.5338L8.2815 28.0056L8.46048 27.5338ZM8.10276 27.3981L8.28173 26.9264L8.10276 27.3981ZM7.79814 27.173L7.40405 27.488V27.488L7.79814 27.173ZM7.54661 26.8583L7.15252 27.1734V27.1734L7.54661 26.8583ZM7.22924 26.6484L7.09565 27.1349L7.22924 26.6484ZM7.03764 26.5958L7.17123 26.1093L7.03764 26.5958ZM6.84603 26.5432L6.71244 27.0297L6.84603 26.5432ZM6.52493 26.3481L6.15156 26.6875L6.52493 26.3481ZM6.39543 26.2056L6.7688 25.8663L6.39543 26.2056ZM6.26593 26.0632L5.89257 26.4025L6.26593 26.0632ZM5.94094 25.8578L6.09542 25.3775L5.94094 25.8578ZM5.74543 25.7949L5.59095 26.2752L5.74543 25.7949ZM5.54993 25.732L5.70441 25.2517L5.54993 25.732ZM5.24466 25.5067L5.66273 25.2242L5.24466 25.5067ZM5.13488 25.3442L4.71681 25.6267L5.13488 25.3442ZM5.02511 25.1817L4.60703 25.4642L5.02511 25.1817ZM4.75662 24.9071L5.04783 24.495L4.75662 24.9071ZM4.59791 24.7949L4.88912 24.3829L4.59791 24.7949ZM4.43919 24.6827L4.14798 25.0947L4.43919 24.6827ZM4.18106 24.404L3.74783 24.6626L4.18106 24.404ZM3.98222 24.0709L3.54899 24.3295L3.98222 24.0709ZM3.81508 23.7182L4.28919 23.5457L3.81508 23.7182ZM3.74735 23.5322L3.27324 23.7048L3.74735 23.5322ZM3.67963 23.3461L4.15375 23.1736L3.67963 23.3461ZM3.49851 23.0111L3.89999 22.7055L3.49851 23.0111ZM3.38512 22.8621L2.98364 23.1677L3.38512 22.8621ZM3.27173 22.7131L3.67321 22.4076L3.27173 22.7131ZM3.01481 22.4312L3.35776 22.0611L3.01481 22.4312ZM2.72776 22.1651L3.07071 21.7951L2.72776 22.1651ZM2.44604 21.8895L2.80838 21.5384L2.44604 21.8895ZM2.16967 21.6043L1.80734 21.9554L2.16967 21.6043ZM2.00715 21.2614L1.50629 21.3223L2.00715 21.2614ZM1.98282 21.0611L1.48195 21.1219L1.98282 21.0611ZM1.95848 20.8608L2.45935 20.7999L1.95848 20.8608ZM1.92805 20.4599L1.42374 20.4753V20.4753L1.92805 20.4599ZM1.71379 19.7269L1.99498 19.308L1.71379 19.7269ZM1.51782 19.5954L1.23663 20.0143L1.51782 19.5954ZM1.37066 18.668L0.897231 18.4936L1.37066 18.668ZM1.29285 18.2903L0.93962 18.6506L1.29285 18.2903ZM1.13344 18.134L0.780215 18.4943L1.13344 18.134ZM0.974036 17.9777L1.32726 17.6175L0.974036 17.9777ZM0.834739 17.6242L1.33668 17.6753L0.834739 17.6242ZM0.854848 17.4269L0.352903 17.3757L0.854848 17.4269ZM0.874957 17.2296L0.373012 17.1785L0.874957 17.2296ZM0.93441 16.8386L0.439954 16.7382L0.93441 16.8386ZM1.0131 16.4511L1.50755 16.5515L1.0131 16.4511ZM0.937846 16.0768L0.511874 16.3472L0.937846 16.0768ZM0.708661 15.7158L0.282688 15.9862L0.708661 15.7158ZM0.565868 15.3439L0.0667115 15.4174L0.565868 15.3439ZM0.537669 15.1525L0.0385124 15.2261L0.537669 15.1525ZM0.883761 14.2159L1.29193 14.5124L0.883761 14.2159ZM1.03222 13.8461L0.529172 13.8073L1.03222 13.8461ZM1.10746 13.1082L1.60428 13.1962L1.10746 13.1082ZM1.1398 12.9255L1.63663 13.0134L1.1398 12.9255ZM1.17215 12.7428L0.675329 12.6548L1.17215 12.7428ZM1.15994 12.3604L1.65237 12.2505L1.15994 12.3604ZM1.07082 11.961L1.56325 11.8511L1.07082 11.961ZM1.09193 11.5829L0.618416 11.4087L1.09193 11.5829ZM1.22326 11.226L0.749752 11.0517L1.22326 11.226ZM1.34186 10.8664L0.857582 10.7249L1.34186 10.8664ZM1.44772 10.5043L1.932 10.6459L1.44772 10.5043ZM1.50812 10.123L1.00392 10.1043V10.1043L1.50812 10.123ZM1.52304 9.72266L1.01884 9.70387V9.70387L1.52304 9.72266ZM1.61236 9.34883L1.15599 9.13367L1.61236 9.34883ZM1.77609 9.00153L2.23246 9.21668L1.77609 9.00153ZM2.02283 8.69845L2.33439 9.09531L2.02283 8.69845ZM2.35258 8.43958L2.04103 8.04271L2.35258 8.43958ZM2.55229 7.89511L2.04951 7.85292L2.55229 7.89511ZM2.5697 7.6876L3.07248 7.72979L2.5697 7.6876ZM2.77063 7.37306L2.51645 6.93722L2.77063 7.37306ZM2.95414 7.26604L2.69996 6.83019L2.95414 7.26604ZM3.13765 7.15902L3.39183 7.59486L3.13765 7.15902ZM3.4104 6.88588L3.85487 7.12467L3.4104 6.88588ZM3.5889 6.55364L3.14444 6.31485L3.5889 6.55364ZM3.78472 6.23199L4.20094 6.51717V6.51717L3.78472 6.23199ZM3.99785 5.92091L4.41407 6.20609L3.99785 5.92091ZM4.24114 5.63541L4.58876 6.0011L4.24114 5.63541ZM4.51457 5.37549L4.16696 5.0098L4.51457 5.37549ZM5.00548 4.80212L4.61127 4.48722L5.00548 4.80212ZM5.211 4.46686L5.66824 4.68016L5.211 4.46686ZM5.3859 4.09194L4.92866 3.87863L5.3859 4.09194ZM5.66372 3.83554L5.8355 4.30995L5.66372 3.83554ZM6.04447 3.69768L6.21625 4.17209L6.04447 3.69768ZM6.35918 3.47571L5.96757 3.15757L6.35918 3.47571ZM6.60783 3.16963L6.99944 3.48777L6.60783 3.16963ZM7.66693 2.70953L7.95624 3.12288L7.66693 2.70953ZM7.97779 2.49196L7.68847 2.0786L7.97779 2.49196ZM8.30324 2.29984L8.0812 1.84678L8.30324 2.29984ZM8.64329 2.13319L8.42125 1.68013L8.64329 2.13319ZM8.97246 1.93947L9.26005 2.35403L8.97246 1.93947ZM9.29074 1.71867L9.57833 2.13323V2.13323L9.29074 1.71867ZM9.6616 1.63463L9.59926 2.13531L9.6616 1.63463ZM10.085 1.68736L10.1474 1.18668L10.085 1.68736ZM10.4656 1.62904L10.6918 2.08004L10.4656 1.62904ZM10.6345 1.54436L10.8607 1.99536L10.6345 1.54436ZM10.8033 1.45967L10.5771 1.00867L10.8033 1.45967ZM11.1383 1.26269L10.8558 0.844648L11.1383 1.26269ZM11.4707 1.03808L11.7532 1.45612L11.4707 1.03808ZM11.8209 0.870277L11.6753 0.387211L11.8209 0.870277ZM12.189 0.759286L12.3347 1.24235L12.189 0.759286ZM12.5706 0.738206L12.484 1.23526L12.5706 0.738206ZM12.7681 0.772621L12.8547 0.275565L12.7681 0.772621ZM13.3509 0.825209L13.3074 0.322539L13.3509 0.825209ZM14.1035 0.822927L14.2238 0.332936L14.1035 0.822927ZM14.4818 0.915827L14.3615 1.40582L14.4818 0.915827ZM14.8585 0.924028L14.7576 0.429663L14.8585 0.924028ZM15.2335 0.847531L15.3343 1.3419L15.2335 0.847531ZM15.6172 0.720513L15.4093 0.26079L15.6172 0.720513ZM15.8135 0.631743L15.6056 0.17202L15.8135 0.631743ZM16.0098 0.542973L16.2177 1.0027L16.0098 0.542973ZM16.7414 0.799789L16.4677 1.22366L16.7414 0.799789ZM17.1086 0.929005L17.146 0.425843L17.1086 0.929005ZM17.8668 0.984067L17.901 0.480677L17.8668 0.984067ZM18.2501 1.01007L18.2159 1.51346L18.2501 1.01007ZM18.6063 1.13534L18.8906 0.718564L18.6063 1.13534ZM18.9353 1.35986L18.6509 1.77663L18.9353 1.35986ZM19.2791 1.52728L19.4275 1.04506L19.2791 1.52728ZM19.6375 1.63761L19.4891 2.11983L19.6375 1.63761ZM20.1901 1.77471L20.2982 1.28189L20.1901 1.77471ZM20.3768 1.81567L20.2686 2.30849L20.3768 1.81567ZM20.7042 1.99804L20.3467 2.35402L20.7042 1.99804ZM20.845 2.13944L20.4875 2.49542L20.845 2.13944ZM20.9858 2.28084L20.6282 2.63682L20.9858 2.28084ZM21.3073 2.47986L21.154 2.96056L21.3073 2.47986ZM21.6688 2.5951L21.5155 3.07581L21.6688 2.5951ZM22.0208 2.73273L21.8074 3.18989L22.0208 2.73273ZM22.1922 2.81274L22.4057 2.35558L22.1922 2.81274ZM22.3635 2.89275L22.15 3.34991L22.3635 2.89275ZM22.7184 3.04042L22.8929 2.56699L22.7184 3.04042ZM23.0856 3.17572L22.9111 3.64915L23.0856 3.17572ZM23.4446 3.33008L23.221 3.78239L23.4446 3.33008ZM23.62 3.41679L23.8436 2.96449L23.62 3.41679ZM23.7954 3.5035L23.5718 3.9558L23.7954 3.5035ZM24.1087 3.72553L23.7552 4.08559L24.1087 3.72553ZM24.3844 3.99618L24.031 4.35625L24.3844 3.99618ZM24.6244 4.30136L25.0568 4.04135L24.6244 4.30136ZM24.7265 4.4712L24.2941 4.73121L24.7265 4.4712ZM24.8287 4.64105L24.3963 4.90106L24.8287 4.64105ZM25.0903 4.92218L25.379 4.50842L25.0903 4.92218ZM25.4092 5.14475L25.1204 5.5585L25.4092 5.14475ZM25.6426 5.44252L26.1116 5.25647L25.6426 5.44252ZM25.7906 5.8155L25.3216 6.00155L25.7906 5.8155ZM26.0451 6.10335L25.7981 6.54329L26.0451 6.10335ZM26.4061 6.30607L26.1591 6.74601L26.4061 6.30607ZM26.6207 6.61453L26.1229 6.69641L26.6207 6.61453ZM26.6888 7.02873L27.1867 6.94686L26.6888 7.02873ZM26.9826 7.5195L26.6104 7.86019L26.9826 7.5195ZM27.1124 7.66133L27.4846 7.32064L27.1124 7.66133ZM27.2995 7.98667L26.8178 8.13692L27.2995 7.98667ZM27.414 8.35369L27.8956 8.20344L27.414 8.35369ZM27.624 8.67509L27.2859 9.0496L27.624 8.67509ZM27.9295 8.95087L27.5914 9.32538L27.9295 8.95087ZM28.085 9.29277L28.5895 9.28574L28.085 9.29277ZM28.0879 9.49678L27.5834 9.50381L28.0879 9.49678ZM28.192 10.0708L28.626 9.81333L28.192 10.0708ZM28.2905 10.2368L27.8566 10.4942L28.2905 10.2368ZM28.389 10.4028L28.8229 10.1453L28.389 10.4028ZM28.4548 10.7734L27.9566 10.6939L28.4548 10.7734ZM28.3894 11.1828L27.8912 11.1033L28.3894 11.1828ZM28.4943 11.5488L28.8781 11.2213L28.4943 11.5488ZM28.7696 11.8713L28.3859 12.1989L28.7696 11.8713ZM28.9466 12.2194L29.4403 12.1155L28.9466 12.2194ZM29.0252 12.593L28.5315 12.6969L29.0252 12.593ZM28.9805 12.9792L29.4455 13.175L28.9805 12.9792ZM28.8965 13.1786L28.4315 12.9828L28.8965 13.1786ZM28.8126 13.378L29.2776 13.5738L28.8126 13.378ZM28.882 13.7568L28.4987 14.0848L28.882 13.7568ZM29.189 14.1155L29.5723 13.7875L29.189 14.1155ZM29.3012 14.4383L28.8163 14.2991L29.3012 14.4383ZM29.26 14.5819L28.7751 14.4426L29.26 14.5819ZM29.2188 14.7254L29.7037 14.8646L29.2188 14.7254ZM29.0283 15.0555L28.5436 14.9154L29.0283 15.0555ZM28.9744 15.2421L28.4897 15.102L28.4357 15.2886L28.9204 15.4287L29.4051 15.5688L29.4591 15.3822L28.9744 15.2421ZM28.9204 15.4287L28.4357 15.2886C28.373 15.5057 28.374 15.7274 28.4338 15.9432L28.92 15.8085L29.4063 15.6739C29.3946 15.6319 29.396 15.6005 29.4051 15.5688L28.9204 15.4287ZM28.92 15.8085L28.4338 15.9432L28.4873 16.1365L28.9735 16.0018L29.4598 15.8672L29.4063 15.6739L28.92 15.8085ZM28.9735 16.0018L28.4873 16.1365L28.5408 16.3297L29.027 16.1951L29.5133 16.0605L29.4598 15.8672L28.9735 16.0018ZM29.027 16.1951L28.5408 16.3297C28.5688 16.4309 28.5875 16.5317 28.5972 16.6323L29.0994 16.584L29.6016 16.5357C29.5862 16.3755 29.5566 16.217 29.5133 16.0605L29.027 16.1951ZM29.0994 16.584L28.5972 16.6323L28.616 16.828L29.1182 16.7797L29.6204 16.7314L29.6016 16.5357L29.0994 16.584ZM29.1182 16.7797L28.616 16.828L28.6348 17.0236L29.137 16.9753L29.6392 16.927L29.6204 16.7314L29.1182 16.7797ZM29.137 16.9753L28.6348 17.0236C28.6348 17.0237 28.6347 17.0231 28.6347 17.022C28.6347 17.0209 28.6348 17.0194 28.635 17.0177C28.6354 17.0139 28.6362 17.0103 28.6371 17.0074C28.6381 17.0046 28.6387 17.0038 28.6378 17.0054C28.6369 17.007 28.6342 17.0114 28.6284 17.0185L29.0186 17.3384L29.4088 17.6583C29.5754 17.455 29.6659 17.2042 29.6392 16.927L29.137 16.9753ZM29.0186 17.3384L28.6284 17.0185L28.4912 17.1859L28.8813 17.5058L29.2715 17.8257L29.4088 17.6583L29.0186 17.3384ZM28.8813 17.5058L28.4912 17.1859L28.3539 17.3533L28.7441 17.6732L29.1342 17.9931L29.2715 17.8257L28.8813 17.5058ZM28.7441 17.6732L28.3539 17.3533C28.1927 17.5498 28.0998 17.7896 28.1107 18.057L28.6148 18.0366L29.1189 18.0161C29.1189 18.0144 29.119 18.0143 29.1188 18.0152C29.1187 18.0162 29.1185 18.0168 29.1185 18.0168C29.1185 18.0168 29.1192 18.015 29.1213 18.0113C29.1235 18.0075 29.1274 18.0014 29.1342 17.9931L28.7441 17.6732ZM28.6148 18.0366L28.1107 18.057L28.1186 18.253L28.6228 18.2326L29.1269 18.2121L29.1189 18.0161L28.6148 18.0366ZM28.6228 18.2326L28.1186 18.253L28.1266 18.449L28.6307 18.4286L29.1348 18.4081L29.1269 18.2121L28.6228 18.2326ZM28.6307 18.4286L28.1266 18.449C28.1294 18.5183 28.1198 18.5799 28.0997 18.6375L28.5761 18.8038L29.0524 18.9702C29.1158 18.7887 29.1426 18.6001 29.1348 18.4081L28.6307 18.4286ZM28.5761 18.8038L28.0997 18.6375L28.0371 18.8168L28.5134 18.9831L28.9898 19.1495L29.0524 18.9702L28.5761 18.8038ZM28.5134 18.9831L28.0371 18.8168L27.9745 18.9961L28.4508 19.1624L28.9271 19.3288L28.9898 19.1495L28.5134 18.9831ZM28.4508 19.1624L27.9745 18.9961C27.948 19.0719 27.9111 19.1447 27.8624 19.2152L28.2776 19.5019L28.6928 19.7886C28.7915 19.6455 28.8701 19.4921 28.9271 19.3288L28.4508 19.1624ZM28.2776 19.5019L27.8624 19.2152L27.7519 19.3753L28.167 19.662L28.5822 19.9487L28.6928 19.7886L28.2776 19.5019ZM28.167 19.662L27.7519 19.3753L27.6413 19.5354L28.0564 19.8221L28.4716 20.1088L28.5822 19.9487L28.167 19.662ZM28.0564 19.8221L27.6413 19.5354C27.518 19.714 27.4455 19.9151 27.4247 20.1304L27.9269 20.1789L28.4291 20.2274C28.4336 20.1805 28.4475 20.1438 28.4716 20.1088L28.0564 19.8221ZM27.9269 20.1789L27.4247 20.1304L27.4057 20.327L27.9079 20.3755L28.4101 20.424L28.4291 20.2274L27.9269 20.1789ZM27.9079 20.3755L27.4057 20.327L27.3867 20.5236L27.8889 20.5721L28.3911 20.6206L28.4101 20.424L27.9079 20.3755ZM27.8889 20.5721L27.3867 20.5236C27.3846 20.5448 27.38 20.5547 27.3662 20.5695L27.7358 20.913L28.1055 21.2564C28.2704 21.0789 28.3678 20.8615 28.3911 20.6206L27.8889 20.5721ZM27.7358 20.913L27.3662 20.5695L27.2322 20.7138L27.6018 21.0573L27.9714 21.4007L28.1055 21.2564L27.7358 20.913ZM27.6018 21.0573L27.2322 20.7138L27.0981 20.8581L27.4677 21.2016L27.8373 21.545L27.9714 21.4007L27.6018 21.0573ZM27.4677 21.2016L27.0981 20.8581C26.9275 21.0417 26.834 21.2667 26.8135 21.5106L27.3163 21.5528L27.8191 21.595C27.8217 21.5629 27.8291 21.5538 27.8373 21.545L27.4677 21.2016ZM27.3163 21.5528L26.8135 21.5106L26.7961 21.7175L27.2989 21.7597L27.8017 21.8019L27.8191 21.595L27.3163 21.5528ZM27.2989 21.7597L26.7961 21.7175L26.7788 21.9245L27.2816 21.9666L27.7843 22.0088L27.8017 21.8019L27.2989 21.7597ZM27.2816 21.9666L26.7788 21.9245C26.7723 22.002 26.7536 22.0637 26.7273 22.1151L27.1764 22.3451L27.6254 22.5751C27.7162 22.3978 27.7677 22.2072 27.7843 22.0088L27.2816 21.9666ZM27.1764 22.3451L26.7273 22.1151L26.6394 22.2866L27.0885 22.5166L27.5376 22.7466L27.6254 22.5751L27.1764 22.3451ZM27.0885 22.5166L26.6394 22.2866L26.5516 22.4582L27.0006 22.6882L27.4497 22.9182L27.5376 22.7466L27.0885 22.5166ZM27.0006 22.6882L26.5516 22.4582C26.5495 22.4621 26.5429 22.4776 26.4987 22.4989L26.7171 22.9537L26.9355 23.4085C27.1522 23.3045 27.3346 23.143 27.4497 22.9182L27.0006 22.6882ZM26.7171 22.9537L26.4987 22.4989L26.303 22.5929L26.5214 23.0477L26.7398 23.5025L26.9355 23.4085L26.7171 22.9537ZM26.5214 23.0477L26.303 22.5929L26.1073 22.6868L26.3257 23.1417L26.5441 23.5965L26.7398 23.5025L26.5214 23.0477ZM26.3257 23.1417L26.1073 22.6868C25.8558 22.8076 25.6683 23.0147 25.5888 23.2942L26.0741 23.4321L26.5594 23.5701C26.5596 23.5697 26.5588 23.5724 26.5563 23.5771C26.5538 23.5819 26.5504 23.5869 26.5464 23.5916C26.5424 23.5962 26.5391 23.5989 26.5378 23.5998C26.5366 23.6007 26.5382 23.5993 26.5441 23.5965L26.3257 23.1417ZM26.0741 23.4321L25.5888 23.2942L25.5329 23.4907L26.0183 23.6287L26.5036 23.7666L26.5594 23.5701L26.0741 23.4321ZM26.0183 23.6287L25.5329 23.4907L25.4771 23.6872L25.9624 23.8252L26.4477 23.9631L26.5036 23.7666L26.0183 23.6287ZM25.9624 23.8252L25.4771 23.6872C25.4768 23.6881 25.4776 23.685 25.4806 23.6794C25.4837 23.6736 25.4881 23.6669 25.494 23.6602C25.5069 23.6456 25.5171 23.6416 25.5132 23.6434L25.716 24.1053L25.9188 24.5673C26.1806 24.4524 26.3685 24.242 26.4477 23.9631L25.9624 23.8252ZM25.716 24.1053L25.5132 23.6434L25.3226 23.727L25.5254 24.189L25.7283 24.651L25.9188 24.5673L25.716 24.1053ZM25.5254 24.189L25.3226 23.727L25.132 23.8107L25.3349 24.2727L25.5377 24.7346L25.7283 24.651L25.5254 24.189ZM25.3349 24.2727L25.132 23.8107C24.9597 23.8863 24.802 23.9857 24.6651 24.1121L25.0075 24.4827L25.3498 24.8534C25.3954 24.8113 25.4559 24.7705 25.5377 24.7346L25.3349 24.2727ZM25.0075 24.4827L24.6651 24.1121L24.5283 24.2384L24.8706 24.6091L25.2129 24.9798L25.3498 24.8534L25.0075 24.4827ZM24.8706 24.6091L24.5283 24.2384L24.3915 24.3648L24.7338 24.7355L25.0761 25.1061L25.2129 24.9798L24.8706 24.6091ZM24.7338 24.7355L24.3915 24.3648C24.3077 24.4422 24.2218 24.5168 24.1338 24.5887L24.453 24.9794L24.7723 25.3701C24.8761 25.2853 24.9774 25.1973 25.0761 25.1061L24.7338 24.7355ZM24.453 24.9794L24.1338 24.5887L23.9899 24.7062L24.3091 25.097L24.6284 25.4877L24.7723 25.3701L24.453 24.9794ZM24.3091 25.097L23.9899 24.7062L23.846 24.8238L24.1653 25.2145L24.4845 25.6053L24.6284 25.4877L24.3091 25.097ZM24.1653 25.2145L23.846 24.8238C23.7237 24.9238 23.612 25.0356 23.511 25.1587L23.9011 25.4787L24.2911 25.7987C24.3505 25.7263 24.415 25.662 24.4845 25.6053L24.1653 25.2145ZM23.9011 25.4787L23.511 25.1587L23.3907 25.3053L23.7807 25.6253L24.1708 25.9454L24.2911 25.7987L23.9011 25.4787ZM23.7807 25.6253L23.3907 25.3053L23.2704 25.4519L23.6604 25.772L24.0505 26.092L24.1708 25.9454L23.7807 25.6253ZM23.6604 25.772L23.2704 25.4519C23.2195 25.5139 23.1627 25.5662 23.0992 25.6101L23.3863 26.025L23.6733 26.44C23.815 26.3419 23.9409 26.2255 24.0505 26.092L23.6604 25.772ZM23.3863 26.025L23.0992 25.6101L22.9454 25.7165L23.2325 26.1314L23.5195 26.5464L23.6733 26.44L23.3863 26.025ZM23.2325 26.1314L22.9454 25.7165L22.7916 25.8229L23.0786 26.2379L23.3657 26.6528L23.5195 26.5464L23.2325 26.1314ZM23.0786 26.2379L22.7916 25.8229C22.6531 25.9187 22.528 26.0316 22.4162 26.1599L22.7965 26.4915L23.1769 26.823C23.2361 26.755 23.299 26.6989 23.3657 26.6528L23.0786 26.2379ZM22.7965 26.4915L22.4162 26.1599L22.2879 26.3071L22.6682 26.6386L23.0486 26.9701L23.1769 26.823L22.7965 26.4915ZM22.6682 26.6386L22.2879 26.3071L22.1596 26.4543L22.54 26.7858L22.9203 27.1173L23.0486 26.9701L22.6682 26.6386ZM22.54 26.7858L22.1596 26.4543C22.1088 26.5126 22.0534 26.5583 21.9927 26.5939L22.2482 27.029L22.5037 27.464C22.661 27.3717 22.8001 27.2552 22.9203 27.1173L22.54 26.7858ZM22.2482 27.029L21.9927 26.5939L21.8293 26.6899L22.0848 27.125L22.3403 27.56L22.5037 27.464L22.2482 27.029ZM22.0848 27.125L21.8293 26.6899L21.6658 26.7859L21.9213 27.221L22.1768 27.656L22.3403 27.56L22.0848 27.125ZM21.9213 27.221L21.6658 26.7859C21.5917 26.8294 21.5127 26.864 21.428 26.8897L21.5742 27.3726L21.7204 27.8555C21.8805 27.807 22.033 27.7405 22.1768 27.656L21.9213 27.221ZM21.5742 27.3726L21.428 26.8897L21.2444 26.9452L21.3905 27.4282L21.5367 27.9111L21.7204 27.8555L21.5742 27.3726ZM21.3905 27.4282L21.2444 26.9452L21.0607 27.0008L21.2069 27.4837L21.3531 27.9667L21.5367 27.9111L21.3905 27.4282ZM21.2069 27.4837L21.0607 27.0008C20.8537 27.0635 20.6732 27.1758 20.5224 27.3274L20.8801 27.6832L21.2379 28.039C21.2778 27.9988 21.3152 27.9781 21.3531 27.9667L21.2069 27.4837ZM20.8801 27.6832L20.5224 27.3274L20.3793 27.4712L20.737 27.8271L21.0948 28.1829L21.2379 28.039L20.8801 27.6832ZM20.737 27.8271L20.3793 27.4712L20.2362 27.6151L20.5939 27.9709L20.9517 28.3267L21.0948 28.1829L20.737 27.8271ZM20.5939 27.9709L20.2362 27.6151C20.2039 27.6476 20.1766 27.6607 20.1485 27.6672L20.2632 28.1586L20.3778 28.6499C20.6 28.5981 20.7932 28.486 20.9517 28.3267L20.5939 27.9709ZM20.2632 28.1586L20.1485 27.6672L19.9608 27.711L20.0755 28.2023L20.1901 28.6937L20.3778 28.6499L20.2632 28.1586ZM20.0755 28.2023L19.9608 27.711L19.7732 27.7548L19.8878 28.2461L20.0024 28.7375L20.1901 28.6937L20.0755 28.2023ZM19.8878 28.2461L19.7732 27.7548C19.6092 27.793 19.4515 27.8502 19.301 27.9259L19.5277 28.3766L19.7544 28.8274C19.8338 28.7875 19.9162 28.7576 20.0024 28.7375L19.8878 28.2461ZM19.5277 28.3766L19.301 27.9259L19.1286 28.0126L19.3553 28.4633L19.582 28.9141L19.7544 28.8274L19.5277 28.3766ZM19.3553 28.4633L19.1286 28.0126L18.9562 28.0993L19.1829 28.55L19.4095 29.0008L19.582 28.9141L19.3553 28.4633ZM19.1829 28.55L18.9562 28.0993C18.9425 28.1062 18.9244 28.1125 18.884 28.1062L18.8057 28.6046L18.7274 29.103C18.9599 29.1395 19.1933 29.1095 19.4095 29.0008L19.1829 28.55ZM18.8057 28.6046L18.884 28.1062L18.6792 28.074L18.601 28.5725L18.5227 29.0709L18.7274 29.103L18.8057 28.6046ZM18.601 28.5725L18.6792 28.074L18.4745 28.0419L18.3962 28.5403L18.318 29.0388L18.5227 29.0709L18.601 28.5725ZM18.3962 28.5403L18.4745 28.0419C18.1751 27.9949 17.9008 28.0901 17.6877 28.2857L18.0288 28.6574L18.3699 29.0292C18.378 29.0218 18.3733 29.0285 18.3552 29.0342C18.3469 29.0369 18.3384 29.0384 18.3307 29.039C18.3232 29.0395 18.3187 29.0389 18.318 29.0388L18.3962 28.5403ZM18.0288 28.6574L17.6877 28.2857L17.525 28.4349L17.8662 28.8067L18.2073 29.1784L18.3699 29.0292L18.0288 28.6574ZM17.8662 28.8067L17.525 28.4349L17.3624 28.5842L17.7035 28.956L18.0446 29.3277L18.2073 29.1784L17.8662 28.8067ZM17.7035 28.956L17.3624 28.5842C17.3583 28.5879 17.372 28.5744 17.4036 28.5662C17.4366 28.5576 17.4621 28.5617 17.47 28.5638L17.3391 29.0511L17.2083 29.5383C17.5206 29.6222 17.8177 29.5359 18.0446 29.3277L17.7035 28.956ZM17.3391 29.0511L17.47 28.5638L17.2684 28.5096L17.1375 28.9969L17.0066 29.4842L17.2083 29.5383L17.3391 29.0511ZM17.1375 28.9969L17.2684 28.5096L17.0667 28.4554L16.9358 28.9427L16.8049 29.43L17.0066 29.4842L17.1375 28.9969ZM16.9358 28.9427L17.0667 28.4554C16.8965 28.4097 16.7252 28.3838 16.5538 28.3807L16.5448 28.8852L16.5359 29.3897C16.6169 29.3911 16.7062 29.4035 16.8049 29.43L16.9358 28.9427ZM16.5448 28.8852L16.5538 28.3807L16.3645 28.3774L16.3555 28.8818L16.3466 29.3863L16.5359 29.3897L16.5448 28.8852ZM16.3555 28.8818L16.3645 28.3774L16.1752 28.374L16.1662 28.8785L16.1572 29.3829L16.3466 29.3863L16.3555 28.8818ZM16.1662 28.8785L16.1752 28.374C16.0604 28.372 15.9462 28.366 15.8325 28.3562L15.7891 28.8589L15.7458 29.3616C15.8824 29.3734 16.0196 29.3805 16.1572 29.3829L16.1662 28.8785ZM15.7891 28.8589L15.8325 28.3562L15.6447 28.34L15.6014 28.8427L15.558 29.3454L15.7458 29.3616L15.7891 28.8589ZM15.6014 28.8427L15.6447 28.34L15.457 28.3239L15.4136 28.8265L15.3703 29.3292L15.558 29.3454L15.6014 28.8427ZM15.4136 28.8265L15.457 28.3239C15.2687 28.3076 15.0822 28.3266 14.9003 28.3781L15.0377 28.8636L15.1751 29.3491C15.2441 29.3295 15.3082 29.3239 15.3703 29.3292L15.4136 28.8265ZM15.0377 28.8636L14.9003 28.3781L14.7121 28.4314L14.8495 28.9168L14.9869 29.4023L15.1751 29.3491L15.0377 28.8636ZM14.8495 28.9168L14.7121 28.4314L14.5239 28.4846L14.6613 28.9701L14.7987 29.4556L14.9869 29.4023L14.8495 28.9168ZM14.6613 28.9701L14.5239 28.4846C14.4071 28.5177 14.2887 28.5478 14.1685 28.575L14.28 29.0671L14.3915 29.5592C14.5288 29.5281 14.6645 29.4935 14.7987 29.4556L14.6613 28.9701ZM14.28 29.0671L14.1685 28.575L13.9754 28.6188L14.0869 29.1109L14.1985 29.6029L14.3915 29.5592L14.28 29.0671ZM14.0869 29.1109L13.9754 28.6188L13.7823 28.6625L13.8939 29.1546L14.0054 29.6467L14.1985 29.6029L14.0869 29.1109ZM13.8939 29.1546L13.7823 28.6625C13.7835 28.6623 13.7873 28.6616 13.7933 28.6615C13.7994 28.6614 13.8058 28.6621 13.8116 28.6634C13.8243 28.6661 13.8253 28.6695 13.8138 28.6614L13.5242 29.0746L13.2346 29.4878C13.4573 29.6438 13.7245 29.7103 14.0054 29.6467L13.8939 29.1546ZM13.5242 29.0746L13.8138 28.6614L13.6372 28.5376L13.3476 28.9508L13.058 29.364L13.2346 29.4878L13.5242 29.0746ZM13.3476 28.9508L13.6372 28.5376L13.4605 28.4139L13.171 28.827L12.8814 29.2402L13.058 29.364L13.3476 28.9508ZM13.171 28.827L13.4605 28.4139C13.2878 28.2928 13.0935 28.2077 12.88 28.1777L12.8098 28.6773L12.7396 29.177C12.7722 29.1816 12.8187 29.1963 12.8814 29.2402L13.171 28.827ZM12.8098 28.6773L12.88 28.1777L12.6954 28.1518L12.6252 28.6514L12.555 29.151L12.7396 29.177L12.8098 28.6773ZM12.6252 28.6514L12.6954 28.1518L12.5108 28.1258L12.4406 28.6255L12.3704 29.1251L12.555 29.151L12.6252 28.6514ZM12.4406 28.6255L12.5108 28.1258C12.387 28.1084 12.2627 28.0913 12.1381 28.0744L12.0702 28.5743L12.0024 29.0743C12.1255 29.091 12.2481 29.1079 12.3704 29.1251L12.4406 28.6255ZM12.0702 28.5743L12.1381 28.0744L11.9523 28.0492L11.8845 28.5491L11.8166 29.0491L12.0024 29.0743L12.0702 28.5743ZM11.8845 28.5491L11.9523 28.0492L11.7665 28.0239L11.6987 28.5239L11.6308 29.0239L11.8166 29.0491L11.8845 28.5491ZM11.6987 28.5239L11.7665 28.0239C11.5971 28.0009 11.4247 28.001 11.251 28.0215L11.3099 28.5226L11.3687 29.0237C11.4658 29.0123 11.5526 29.0133 11.6308 29.0239L11.6987 28.5239ZM11.3099 28.5226L11.251 28.0215L11.048 28.0453L11.1068 28.5464L11.1657 29.0475L11.3687 29.0237L11.3099 28.5226ZM11.1068 28.5464L11.048 28.0453L10.8449 28.0692L10.9038 28.5703L10.9627 29.0714L11.1657 29.0475L11.1068 28.5464ZM10.9038 28.5703L10.8449 28.0692C10.8416 28.0696 10.8418 28.0692 10.8448 28.0695C10.848 28.0697 10.8526 28.0704 10.858 28.0721C10.8634 28.0737 10.8677 28.0757 10.8706 28.0773C10.8734 28.0788 10.8736 28.0793 10.8712 28.0773L10.5452 28.4624L10.2191 28.8474C10.4299 29.0259 10.6889 29.1035 10.9627 29.0714L10.9038 28.5703ZM10.5452 28.4624L10.8712 28.0773L10.7156 27.9456L10.3896 28.3306L10.0636 28.7157L10.2191 28.8474L10.5452 28.4624ZM10.3896 28.3306L10.7156 27.9456L10.5601 27.8139L10.234 28.1989L9.90797 28.5839L10.0636 28.7157L10.3896 28.3306ZM10.234 28.1989L10.5601 27.8139C10.3614 27.6456 10.1208 27.5616 9.86175 27.5672L9.87276 28.0716L9.88377 28.5761C9.89035 28.5759 9.8943 28.5764 9.89612 28.5767C9.89707 28.5768 9.89764 28.5769 9.89791 28.577C9.89818 28.5771 9.89829 28.5771 9.89829 28.5771C9.89829 28.5771 9.89833 28.5771 9.89847 28.5772C9.89861 28.5772 9.89898 28.5774 9.8996 28.5778C9.90077 28.5785 9.90358 28.5802 9.90797 28.5839L10.234 28.1989ZM9.87276 28.0716L9.86175 27.5672L9.65607 27.5717L9.66708 28.0761L9.67808 28.5806L9.88377 28.5761L9.87276 28.0716ZM9.66708 28.0761L9.65607 27.5717L9.45039 27.5762L9.4614 28.0806L9.4724 28.5851L9.67808 28.5806L9.66708 28.0761ZM9.4614 28.0806L9.45039 27.5762C9.43326 27.5766 9.42564 27.5743 9.42388 27.5737C9.42245 27.5733 9.41931 27.5722 9.41299 27.5672L9.10162 27.9643L8.79025 28.3613C8.98968 28.5177 9.22501 28.5904 9.4724 28.5851L9.4614 28.0806ZM9.10162 27.9643L9.41299 27.5672L9.25889 27.4464L8.94753 27.8434L8.63616 28.2404L8.79025 28.3613L9.10162 27.9643ZM8.94753 27.8434L9.25889 27.4464L9.1048 27.3255L8.79343 27.7226L8.48206 28.1196L8.63616 28.2404L8.94753 27.8434ZM8.79343 27.7226L9.1048 27.3255C8.96293 27.2143 8.80747 27.1259 8.63945 27.0621L8.46048 27.5338L8.2815 28.0056C8.35196 28.0323 8.41848 28.0697 8.48206 28.1196L8.79343 27.7226ZM8.46048 27.5338L8.63945 27.0621L8.46059 26.9942L8.28162 27.466L8.10264 27.9377L8.2815 28.0056L8.46048 27.5338ZM8.28162 27.466L8.46059 26.9942L8.28173 26.9264L8.10276 27.3981L7.92378 27.8699L8.10264 27.9377L8.28162 27.466ZM8.10276 27.3981L8.28173 26.9264C8.25146 26.9149 8.22278 26.8961 8.19223 26.8579L7.79814 27.173L7.40405 27.488C7.54118 27.6595 7.71558 27.7909 7.92378 27.8699L8.10276 27.3981ZM7.79814 27.173L8.19223 26.8579L8.06647 26.7006L7.67237 27.0156L7.27828 27.3307L7.40405 27.488L7.79814 27.173ZM7.67237 27.0156L8.06647 26.7006L7.9407 26.5433L7.54661 26.8583L7.15252 27.1734L7.27828 27.3307L7.67237 27.0156ZM7.54661 26.8583L7.9407 26.5433C7.79129 26.3564 7.59483 26.2256 7.36283 26.1619L7.22924 26.6484L7.09565 27.1349C7.11913 27.1414 7.13425 27.1505 7.15252 27.1734L7.54661 26.8583ZM7.22924 26.6484L7.36283 26.1619L7.17123 26.1093L7.03764 26.5958L6.90405 27.0823L7.09565 27.1349L7.22924 26.6484ZM7.03764 26.5958L7.17123 26.1093L6.97962 26.0566L6.84603 26.5432L6.71244 27.0297L6.90405 27.0823L7.03764 26.5958ZM6.84603 26.5432L6.97962 26.0566C6.94103 26.046 6.91813 26.0306 6.89829 26.0087L6.52493 26.3481L6.15156 26.6875C6.30438 26.8556 6.49555 26.9702 6.71244 27.0297L6.84603 26.5432ZM6.52493 26.3481L6.89829 26.0087L6.7688 25.8663L6.39543 26.2056L6.02206 26.545L6.15156 26.6875L6.52493 26.3481ZM6.39543 26.2056L6.7688 25.8663L6.6393 25.7238L6.26593 26.0632L5.89257 26.4025L6.02206 26.545L6.39543 26.2056ZM6.26593 26.0632L6.6393 25.7238C6.48963 25.5591 6.30399 25.4446 6.09542 25.3775L5.94094 25.8578L5.78646 26.3381C5.83855 26.3549 5.86958 26.3772 5.89257 26.4025L6.26593 26.0632ZM5.94094 25.8578L6.09542 25.3775L5.89991 25.3146L5.74543 25.7949L5.59095 26.2752L5.78646 26.3381L5.94094 25.8578ZM5.74543 25.7949L5.89991 25.3146L5.70441 25.2517L5.54993 25.732L5.39545 26.2124L5.59095 26.2752L5.74543 25.7949ZM5.54993 25.732L5.70441 25.2517C5.67615 25.2426 5.66953 25.2343 5.66273 25.2242L5.24466 25.5067L4.82658 25.7891C4.96615 25.9957 5.16305 26.1376 5.39545 26.2124L5.54993 25.732ZM5.24466 25.5067L5.66273 25.2242L5.55296 25.0617L5.13488 25.3442L4.71681 25.6267L4.82658 25.7891L5.24466 25.5067ZM5.13488 25.3442L5.55296 25.0617L5.44318 24.8993L5.02511 25.1817L4.60703 25.4642L4.71681 25.6267L5.13488 25.3442ZM5.02511 25.1817L5.44318 24.8993C5.3362 24.7409 5.20386 24.6053 5.04783 24.495L4.75662 24.9071L4.46541 25.3191C4.521 25.3584 4.56765 25.4059 4.60703 25.4642L5.02511 25.1817ZM4.75662 24.9071L5.04783 24.495L4.88912 24.3829L4.59791 24.7949L4.30669 25.2069L4.46541 25.3191L4.75662 24.9071ZM4.59791 24.7949L4.88912 24.3829L4.73041 24.2707L4.43919 24.6827L4.14798 25.0947L4.30669 25.2069L4.59791 24.7949ZM4.43919 24.6827L4.73041 24.2707C4.68201 24.2365 4.64439 24.1958 4.61429 24.1454L4.18106 24.404L3.74783 24.6626C3.85029 24.8342 3.98476 24.9794 4.14798 25.0947L4.43919 24.6827ZM4.18106 24.404L4.61429 24.1454L4.51488 23.9788L4.08164 24.2374L3.64841 24.496L3.74783 24.6626L4.18106 24.404ZM4.08164 24.2374L4.51488 23.9788L4.41546 23.8123L3.98222 24.0709L3.54899 24.3295L3.64841 24.496L4.08164 24.2374ZM3.98222 24.0709L4.41546 23.8123C4.36582 23.7291 4.32369 23.6404 4.28919 23.5457L3.81508 23.7182L3.34096 23.8908C3.39677 24.0441 3.46606 24.1905 3.54899 24.3295L3.98222 24.0709ZM3.81508 23.7182L4.28919 23.5457L4.22147 23.3596L3.74735 23.5322L3.27324 23.7048L3.34096 23.8908L3.81508 23.7182ZM3.74735 23.5322L4.22147 23.3596L4.15375 23.1736L3.67963 23.3461L3.20551 23.5187L3.27324 23.7048L3.74735 23.5322ZM3.67963 23.3461L4.15375 23.1736C4.09222 23.0045 4.00809 22.8475 3.89999 22.7055L3.49851 23.0111L3.09703 23.3167C3.14013 23.3733 3.17674 23.4396 3.20551 23.5187L3.67963 23.3461ZM3.49851 23.0111L3.89999 22.7055L3.7866 22.5565L3.38512 22.8621L2.98364 23.1677L3.09703 23.3167L3.49851 23.0111ZM3.38512 22.8621L3.7866 22.5565L3.67321 22.4076L3.27173 22.7131L2.87025 23.0187L2.98364 23.1677L3.38512 22.8621ZM3.27173 22.7131L3.67321 22.4076C3.57923 22.2841 3.47382 22.1686 3.35776 22.0611L3.01481 22.4312L2.67186 22.8012C2.74717 22.871 2.81305 22.9436 2.87025 23.0187L3.27173 22.7131ZM3.01481 22.4312L3.35776 22.0611L3.21423 21.9281L2.87128 22.2981L2.52833 22.6682L2.67186 22.8012L3.01481 22.4312ZM2.87128 22.2981L3.21423 21.9281L3.07071 21.7951L2.72776 22.1651L2.38481 22.5352L2.52833 22.6682L2.87128 22.2981ZM2.72776 22.1651L3.07071 21.7951C2.98175 21.7126 2.8943 21.6271 2.80838 21.5384L2.44604 21.8895L2.08371 22.2406C2.18203 22.3421 2.28239 22.4403 2.38481 22.5352L2.72776 22.1651ZM2.44604 21.8895L2.80838 21.5384L2.67019 21.3958L2.30786 21.7469L1.94553 22.098L2.08371 22.2406L2.44604 21.8895ZM2.30786 21.7469L2.67019 21.3958L2.53201 21.2532L2.16967 21.6043L1.80734 21.9554L1.94553 22.098L2.30786 21.7469ZM2.16967 21.6043L2.53201 21.2532C2.51782 21.2386 2.5112 21.2267 2.50802 21.2006L2.00715 21.2614L1.50629 21.3223C1.53556 21.5632 1.63728 21.7799 1.80734 21.9554L2.16967 21.6043ZM2.00715 21.2614L2.50802 21.2006L2.48368 21.0002L1.98282 21.0611L1.48195 21.1219L1.50629 21.3223L2.00715 21.2614ZM1.98282 21.0611L2.48368 21.0002L2.45935 20.7999L1.95848 20.8608L1.45762 20.9216L1.48195 21.1219L1.98282 21.0611ZM1.95848 20.8608L2.45935 20.7999C2.44495 20.6814 2.43596 20.563 2.43236 20.4446L1.92805 20.4599L1.42374 20.4753C1.42827 20.6242 1.43957 20.773 1.45762 20.9216L1.95848 20.8608ZM1.92805 20.4599L2.43236 20.4446L2.42626 20.2441L1.92195 20.2594L1.41764 20.2748L1.42374 20.4753L1.92805 20.4599ZM1.92195 20.2594L2.42626 20.2441L2.42017 20.0436L1.91585 20.059L1.41154 20.0743L1.41764 20.2748L1.92195 20.2594ZM1.91585 20.059L2.42017 20.0436C2.41023 19.7171 2.2335 19.4681 1.99498 19.308L1.71379 19.7269L1.43259 20.1458C1.44999 20.1575 1.44286 20.157 1.43128 20.138C1.42557 20.1286 1.42034 20.1172 1.41665 20.1046C1.41299 20.092 1.41176 20.0815 1.41154 20.0743L1.91585 20.059ZM1.71379 19.7269L1.99498 19.308L1.79901 19.1765L1.51782 19.5954L1.23663 20.0143L1.43259 20.1458L1.71379 19.7269ZM1.51782 19.5954L1.79901 19.1765L1.60304 19.0449L1.32185 19.4638L1.04066 19.8828L1.23663 20.0143L1.51782 19.5954ZM1.32185 19.4638L1.60304 19.0449C1.60568 19.0467 1.6509 19.0792 1.67525 19.1543C1.6996 19.2295 1.68202 19.2823 1.6809 19.2853L1.20747 19.1109L0.734046 18.9364C0.678535 19.0871 0.652818 19.2726 0.715295 19.4654C0.777769 19.6582 0.907373 19.7933 1.04066 19.8828L1.32185 19.4638ZM1.20747 19.1109L1.6809 19.2853L1.7625 19.0639L1.28907 18.8895L0.815638 18.715L0.734046 18.9364L1.20747 19.1109ZM1.28907 18.8895L1.7625 19.0639L1.84409 18.8425L1.37066 18.668L0.897231 18.4936L0.815638 18.715L1.28907 18.8895ZM1.37066 18.668L1.84409 18.8425C1.89654 18.7001 1.92199 18.5349 1.88617 18.3611C1.84991 18.1851 1.75924 18.041 1.64607 17.93L1.29285 18.2903L0.93962 18.6506C0.932729 18.6438 0.908153 18.6148 0.897833 18.5647C0.887954 18.5167 0.899173 18.4883 0.897231 18.4936L1.37066 18.668ZM1.29285 18.2903L1.64607 17.93L1.48667 17.7737L1.13344 18.134L0.780215 18.4943L0.93962 18.6506L1.29285 18.2903ZM1.13344 18.134L1.48667 17.7737L1.32726 17.6175L0.974036 17.9777L0.620809 18.338L0.780215 18.4943L1.13344 18.134ZM0.974036 17.9777L1.32726 17.6175C1.31599 17.6064 1.32202 17.6087 1.32894 17.6263C1.33226 17.6347 1.33479 17.6442 1.33608 17.654C1.33737 17.6637 1.33711 17.6711 1.33668 17.6753L0.834739 17.6242L0.332793 17.573C0.301738 17.8777 0.420614 18.1417 0.620809 18.338L0.974036 17.9777ZM0.834739 17.6242L1.33668 17.6753L1.35679 17.4781L0.854848 17.4269L0.352903 17.3757L0.332793 17.573L0.834739 17.6242ZM0.854848 17.4269L1.35679 17.4781L1.3769 17.2808L0.874957 17.2296L0.373012 17.1785L0.352903 17.3757L0.854848 17.4269ZM0.874957 17.2296L1.3769 17.2808C1.38863 17.1658 1.40595 17.0519 1.42887 16.939L0.93441 16.8386L0.439954 16.7382C0.41041 16.8837 0.388097 17.0305 0.373012 17.1785L0.874957 17.2296ZM0.93441 16.8386L1.42887 16.939L1.46821 16.7453L0.973753 16.6449L0.479297 16.5445L0.439954 16.7382L0.93441 16.8386ZM0.973753 16.6449L1.46821 16.7453L1.50755 16.5515L1.0131 16.4511L0.51864 16.3507L0.479297 16.5445L0.973753 16.6449ZM1.0131 16.4511L1.50755 16.5515C1.56197 16.2836 1.50386 16.027 1.36382 15.8064L0.937846 16.0768L0.511874 16.3472C0.516514 16.3545 0.518597 16.3591 0.519349 16.3609C0.520062 16.3627 0.519742 16.3623 0.519307 16.3601C0.518861 16.3579 0.518594 16.3553 0.518605 16.3528C0.518616 16.3503 0.518888 16.3495 0.51864 16.3507L1.0131 16.4511ZM0.937846 16.0768L1.36382 15.8064L1.24923 15.6259L0.823253 15.8963L0.397281 16.1667L0.511874 16.3472L0.937846 16.0768ZM0.823253 15.8963L1.24923 15.6259L1.13463 15.4454L0.708661 15.7158L0.282688 15.9862L0.397281 16.1667L0.823253 15.8963ZM0.708661 15.7158L1.13463 15.4454C1.09215 15.3785 1.07247 15.3208 1.06503 15.2703L0.565868 15.3439L0.0667115 15.4174C0.0968698 15.6221 0.172385 15.8124 0.282688 15.9862L0.708661 15.7158ZM0.565868 15.3439L1.06503 15.2703L1.03683 15.079L0.537669 15.1525L0.0385124 15.2261L0.0667115 15.4174L0.565868 15.3439ZM0.537669 15.1525L1.03683 15.079L1.00863 14.8876L0.50947 14.9611L0.0103133 15.0347L0.0385124 15.2261L0.537669 15.1525ZM0.50947 14.9611L1.00863 14.8876C1.00903 14.8903 1.00929 14.8942 1.00899 14.8988C1.0087 14.9033 1.00796 14.9066 1.00749 14.9083C1.0065 14.9118 1.00815 14.903 1.02361 14.8817L0.615435 14.5851L0.207261 14.2885C0.055225 14.4978 -0.0311362 14.7534 0.0103133 15.0347L0.50947 14.9611ZM0.615435 14.5851L1.02361 14.8817L1.15777 14.6971L0.749598 14.4005L0.341425 14.1039L0.207261 14.2885L0.615435 14.5851ZM0.749598 14.4005L1.15777 14.6971L1.29193 14.5124L0.883761 14.2159L0.475588 13.9193L0.341425 14.1039L0.749598 14.4005ZM0.883761 14.2159L1.29193 14.5124C1.42364 14.3312 1.51706 14.1207 1.53527 13.885L1.03222 13.8461L0.529172 13.8073C0.528314 13.8184 0.522763 13.8543 0.475588 13.9193L0.883761 14.2159ZM1.03222 13.8461L1.53527 13.885L1.54956 13.6999L1.04652 13.6611L0.543468 13.6222L0.529172 13.8073L1.03222 13.8461ZM1.04652 13.6611L1.54956 13.6999L1.56386 13.5149L1.06081 13.476L0.557764 13.4371L0.543468 13.6222L1.04652 13.6611ZM1.06081 13.476L1.56386 13.5149C1.57212 13.4079 1.58559 13.3017 1.60428 13.1962L1.10746 13.1082L0.610634 13.0203C0.586191 13.1583 0.568566 13.2973 0.557764 13.4371L1.06081 13.476ZM1.10746 13.1082L1.60428 13.1962L1.63663 13.0134L1.1398 12.9255L0.642982 12.8375L0.610634 13.0203L1.10746 13.1082ZM1.1398 12.9255L1.63663 13.0134L1.66897 12.8307L1.17215 12.7428L0.675329 12.6548L0.642982 12.8375L1.1398 12.9255ZM1.17215 12.7428L1.66897 12.8307C1.70329 12.6369 1.6951 12.4419 1.65237 12.2505L1.15994 12.3604L0.667506 12.4703C0.684195 12.545 0.684146 12.605 0.675329 12.6548L1.17215 12.7428ZM1.15994 12.3604L1.65237 12.2505L1.60781 12.0508L1.11538 12.1607L0.622946 12.2706L0.667506 12.4703L1.15994 12.3604ZM1.11538 12.1607L1.60781 12.0508L1.56325 11.8511L1.07082 11.961L0.578385 12.0709L0.622946 12.2706L1.11538 12.1607ZM1.07082 11.961L1.56325 11.8511C1.55298 11.8051 1.55767 11.7782 1.56543 11.7571L1.09193 11.5829L0.618416 11.4087C0.538627 11.6255 0.529244 11.8507 0.578385 12.0709L1.07082 11.961ZM1.09193 11.5829L1.56543 11.7571L1.6311 11.5787L1.15759 11.4044L0.684084 11.2302L0.618416 11.4087L1.09193 11.5829ZM1.15759 11.4044L1.6311 11.5787L1.69677 11.4002L1.22326 11.226L0.749752 11.0517L0.684084 11.2302L1.15759 11.4044ZM1.22326 11.226L1.69677 11.4002C1.74448 11.2705 1.78761 11.1398 1.82614 11.008L1.34186 10.8664L0.857582 10.7249C0.825538 10.8345 0.789603 10.9434 0.749752 11.0517L1.22326 11.226ZM1.34186 10.8664L1.82614 11.008L1.87907 10.8269L1.39479 10.6854L0.910514 10.5438L0.857582 10.7249L1.34186 10.8664ZM1.39479 10.6854L1.87907 10.8269L1.932 10.6459L1.44772 10.5043L0.963445 10.3627L0.910514 10.5438L1.39479 10.6854ZM1.44772 10.5043L1.932 10.6459C1.97967 10.4828 2.00588 10.3143 2.01231 10.1418L1.50812 10.123L1.00392 10.1043C1.0004 10.1987 0.986356 10.2844 0.963445 10.3627L1.44772 10.5043ZM1.50812 10.123L2.01231 10.1418L2.01977 9.94164L1.51558 9.92285L1.01138 9.90406L1.00392 10.1043L1.50812 10.123ZM1.51558 9.92285L2.01977 9.94164L2.02723 9.74145L1.52304 9.72266L1.01884 9.70387L1.01138 9.90406L1.51558 9.92285ZM1.52304 9.72266L2.02723 9.74145C2.02979 9.67299 2.04444 9.61551 2.06874 9.56398L1.61236 9.34883L1.15599 9.13367C1.07113 9.31367 1.02624 9.50542 1.01884 9.70387L1.52304 9.72266ZM1.61236 9.34883L2.06874 9.56398L2.1506 9.39033L1.69423 9.17518L1.23785 8.96003L1.15599 9.13367L1.61236 9.34883ZM1.69423 9.17518L2.1506 9.39033L2.23246 9.21668L1.77609 9.00153L1.31972 8.78638L1.23785 8.96003L1.69423 9.17518ZM1.77609 9.00153L2.23246 9.21668C2.25057 9.17829 2.28045 9.13766 2.33439 9.09531L2.02283 8.69845L1.71127 8.30159C1.54538 8.43182 1.41077 8.59325 1.31972 8.78638L1.77609 9.00153ZM2.02283 8.69845L2.33439 9.09531L2.49926 8.96587L2.18771 8.56901L1.87615 8.17215L1.71127 8.30159L2.02283 8.69845ZM2.18771 8.56901L2.49926 8.96587L2.66414 8.83644L2.35258 8.43958L2.04103 8.04271L1.87615 8.17215L2.18771 8.56901ZM2.35258 8.43958L2.66414 8.83644C2.88346 8.66426 3.01424 8.42385 3.03765 8.14482L2.53487 8.10263L2.03209 8.06043C2.03179 8.06402 2.03147 8.0641 2.0322 8.06154C2.03297 8.05888 2.03444 8.05495 2.03683 8.05054C2.03921 8.04614 2.0416 8.04293 2.04315 8.04113C2.04462 8.03941 2.04437 8.04009 2.04103 8.04271L2.35258 8.43958ZM2.53487 8.10263L3.03765 8.14482L3.05507 7.9373L2.55229 7.89511L2.04951 7.85292L2.03209 8.06043L2.53487 8.10263ZM2.55229 7.89511L3.05507 7.9373L3.07248 7.72979L2.5697 7.6876L2.06692 7.6454L2.04951 7.85292L2.55229 7.89511ZM2.5697 7.6876L3.07248 7.72979C3.07224 7.73265 3.06937 7.75251 3.05384 7.77682C3.03854 7.80077 3.02323 7.80983 3.02481 7.8089L2.77063 7.37306L2.51645 6.93722C2.25545 7.08943 2.09261 7.33927 2.06692 7.6454L2.5697 7.6876ZM2.77063 7.37306L3.02481 7.8089L3.20832 7.70188L2.95414 7.26604L2.69996 6.83019L2.51645 6.93722L2.77063 7.37306ZM2.95414 7.26604L3.20832 7.70188L3.39183 7.59486L3.13765 7.15902L2.88347 6.72317L2.69996 6.83019L2.95414 7.26604ZM3.13765 7.15902L3.39183 7.59486C3.58412 7.48272 3.74594 7.32742 3.85487 7.12467L3.4104 6.88588L2.96594 6.64709C2.95587 6.66583 2.93585 6.69262 2.88347 6.72317L3.13765 7.15902ZM3.4104 6.88588L3.85487 7.12467L3.94411 6.95855L3.49965 6.71976L3.05519 6.48097L2.96594 6.64709L3.4104 6.88588ZM3.49965 6.71976L3.94411 6.95855L4.03336 6.79243L3.5889 6.55364L3.14444 6.31485L3.05519 6.48097L3.49965 6.71976ZM3.5889 6.55364L4.03336 6.79243C4.08429 6.69764 4.14013 6.60591 4.20094 6.51717L3.78472 6.23199L3.36849 5.94681C3.28721 6.06545 3.21251 6.18815 3.14444 6.31485L3.5889 6.55364ZM3.78472 6.23199L4.20094 6.51717L4.30751 6.36163L3.89128 6.07645L3.47506 5.79127L3.36849 5.94681L3.78472 6.23199ZM3.89128 6.07645L4.30751 6.36163L4.41407 6.20609L3.99785 5.92091L3.58163 5.63573L3.47506 5.79127L3.89128 6.07645ZM3.99785 5.92091L4.41407 6.20609C4.46513 6.13158 4.52322 6.0634 4.58876 6.0011L4.24114 5.63541L3.89352 5.26972C3.77676 5.38071 3.67267 5.50286 3.58163 5.63573L3.99785 5.92091ZM4.24114 5.63541L4.58876 6.0011L4.72547 5.87114L4.37786 5.50545L4.03024 5.13976L3.89352 5.26972L4.24114 5.63541ZM4.37786 5.50545L4.72547 5.87114L4.86219 5.74118L4.51457 5.37549L4.16696 5.0098L4.03024 5.13976L4.37786 5.50545ZM4.51457 5.37549L4.86219 5.74118C4.97006 5.63865 5.07055 5.52908 5.16357 5.41263L4.76936 5.09773L4.37514 4.78283C4.31074 4.86344 4.24138 4.93905 4.16696 5.0098L4.51457 5.37549ZM4.76936 5.09773L5.16357 5.41263L5.28164 5.26482L4.88742 4.94992L4.4932 4.63503L4.37514 4.78283L4.76936 5.09773ZM4.88742 4.94992L5.28164 5.26482L5.3997 5.11702L5.00548 4.80212L4.61127 4.48722L4.4932 4.63503L4.88742 4.94992ZM5.00548 4.80212L5.3997 5.11702C5.50557 4.98448 5.59459 4.83803 5.66824 4.68016L5.211 4.46686L4.75376 4.25355C4.7108 4.34563 4.66281 4.42269 4.61127 4.48722L5.00548 4.80212ZM5.211 4.46686L5.66824 4.68016L5.75569 4.4927L5.29845 4.2794L4.84121 4.06609L4.75376 4.25355L5.211 4.46686ZM5.29845 4.2794L5.75569 4.4927L5.84314 4.30524L5.3859 4.09194L4.92866 3.87863L4.84121 4.06609L5.29845 4.2794ZM5.3859 4.09194L5.84314 4.30524C5.84536 4.30048 5.84655 4.29897 5.84607 4.29964C5.84554 4.30039 5.84395 4.30241 5.84126 4.30489C5.83856 4.30738 5.83597 4.30922 5.83413 4.31032C5.83236 4.31138 5.83249 4.31104 5.8355 4.30995L5.66372 3.83554L5.49195 3.36114C5.23594 3.45384 5.04226 3.6351 4.92866 3.87863L5.3859 4.09194ZM5.66372 3.83554L5.8355 4.30995L6.02587 4.24102L5.8541 3.76661L5.68232 3.29221L5.49195 3.36114L5.66372 3.83554ZM5.8541 3.76661L6.02587 4.24102L6.21625 4.17209L6.04447 3.69768L5.8727 3.22328L5.68232 3.29221L5.8541 3.76661ZM6.04447 3.69768L6.21625 4.17209C6.42684 4.09584 6.60855 3.96893 6.75078 3.79385L6.35918 3.47571L5.96757 3.15757C5.94403 3.18655 5.91594 3.20762 5.8727 3.22328L6.04447 3.69768ZM6.35918 3.47571L6.75078 3.79385L6.87511 3.64081L6.4835 3.32267L6.0919 3.00453L5.96757 3.15757L6.35918 3.47571ZM6.4835 3.32267L6.87511 3.64081L6.99944 3.48777L6.60783 3.16963L6.21623 2.85149L6.0919 3.00453L6.4835 3.32267ZM6.60783 3.16963L6.99944 3.48777C7.01251 3.47168 7.02441 3.46286 7.0514 3.45599L6.927 2.96702L6.8026 2.47805C6.56981 2.53727 6.36893 2.66352 6.21623 2.85149L6.60783 3.16963ZM6.927 2.96702L7.0514 3.45599L7.24624 3.40642L7.12183 2.91745L6.99743 2.42848L6.8026 2.47805L6.927 2.96702ZM7.12183 2.91745L7.24624 3.40642L7.44107 3.35685L7.31667 2.86788L7.19227 2.37891L6.99743 2.42848L7.12183 2.91745ZM7.31667 2.86788L7.44107 3.35685C7.62649 3.30968 7.79975 3.23242 7.95624 3.12288L7.66693 2.70953L7.37762 2.29617C7.32688 2.33168 7.26663 2.35999 7.19227 2.37891L7.31667 2.86788ZM7.66693 2.70953L7.95624 3.12288L8.11167 3.0141L7.82236 2.60074L7.53305 2.18738L7.37762 2.29617L7.66693 2.70953ZM7.82236 2.60074L8.11167 3.0141L8.2671 2.90531L7.97779 2.49196L7.68847 2.0786L7.53305 2.18738L7.82236 2.60074ZM7.97779 2.49196L8.2671 2.90531C8.34939 2.84772 8.43539 2.79696 8.52528 2.75291L8.30324 2.29984L8.0812 1.84678C7.94439 1.91383 7.81342 1.99115 7.68847 2.0786L7.97779 2.49196ZM8.30324 2.29984L8.52528 2.75291L8.6953 2.66958L8.47327 2.21652L8.25123 1.76345L8.0812 1.84678L8.30324 2.29984ZM8.47327 2.21652L8.6953 2.66958L8.86533 2.58626L8.64329 2.13319L8.42125 1.68013L8.25123 1.76345L8.47327 2.21652ZM8.64329 2.13319L8.86533 2.58626C9.00198 2.51929 9.13358 2.44176 9.26005 2.35403L8.97246 1.93947L8.68487 1.52491C8.59915 1.58437 8.5113 1.636 8.42125 1.68013L8.64329 2.13319ZM8.97246 1.93947L9.26005 2.35403L9.41919 2.24363L9.1316 1.82907L8.84401 1.41451L8.68487 1.52491L8.97246 1.93947ZM9.1316 1.82907L9.41919 2.24363L9.57833 2.13323L9.29074 1.71867L9.00315 1.30411L8.84401 1.41451L9.1316 1.82907ZM9.29074 1.71867L9.57833 2.13323C9.57931 2.13255 9.57904 2.13284 9.5777 2.13344C9.57633 2.13404 9.57511 2.1344 9.57452 2.13453C9.5728 2.13492 9.57967 2.13288 9.59926 2.13531L9.6616 1.63463L9.72394 1.13395C9.47305 1.10271 9.22198 1.1523 9.00315 1.30411L9.29074 1.71867ZM9.6616 1.63463L9.59926 2.13531L9.81098 2.16168L9.87333 1.661L9.93567 1.16032L9.72394 1.13395L9.6616 1.63463ZM9.87333 1.661L9.81098 2.16168L10.0227 2.18804L10.085 1.68736L10.1474 1.18668L9.93567 1.16032L9.87333 1.661ZM10.085 1.68736L10.0227 2.18804C10.2496 2.21629 10.4789 2.18685 10.6918 2.08004L10.4656 1.62904L10.2394 1.17804C10.2272 1.18414 10.2028 1.19358 10.1474 1.18668L10.085 1.68736ZM10.4656 1.62904L10.6918 2.08004L10.8607 1.99536L10.6345 1.54436L10.4083 1.09336L10.2394 1.17804L10.4656 1.62904ZM10.6345 1.54436L10.8607 1.99536L11.0295 1.91067L10.8033 1.45967L10.5771 1.00867L10.4083 1.09336L10.6345 1.54436ZM10.8033 1.45967L11.0295 1.91067C11.1627 1.84388 11.2931 1.76704 11.4208 1.68072L11.1383 1.26269L10.8558 0.844648C10.762 0.908072 10.669 0.962558 10.5771 1.00867L10.8033 1.45967ZM11.1383 1.26269L11.4208 1.68072L11.587 1.56842L11.3045 1.15038L11.022 0.732344L10.8558 0.844648L11.1383 1.26269ZM11.3045 1.15038L11.587 1.56842L11.7532 1.45612L11.4707 1.03808L11.1882 0.62004L11.022 0.732344L11.3045 1.15038ZM11.4707 1.03808L11.7532 1.45612C11.8237 1.40845 11.8946 1.37505 11.9666 1.35334L11.8209 0.870277L11.6753 0.387211C11.5018 0.439497 11.3392 0.517968 11.1882 0.62004L11.4707 1.03808ZM11.8209 0.870277L11.9666 1.35334L12.1506 1.29785L12.005 0.814782L11.8593 0.331715L11.6753 0.387211L11.8209 0.870277ZM12.005 0.814782L12.1506 1.29785L12.3347 1.24235L12.189 0.759286L12.0434 0.276219L11.8593 0.331715L12.005 0.814782ZM12.189 0.759286L12.3347 1.24235C12.3789 1.22903 12.4263 1.22522 12.484 1.23526L12.5706 0.738206L12.6572 0.241149C12.4515 0.205304 12.2446 0.215545 12.0434 0.276219L12.189 0.759286ZM12.5706 0.738206L12.484 1.23526L12.6815 1.26968L12.7681 0.772621L12.8547 0.275565L12.6572 0.241149L12.5706 0.738206ZM12.7681 0.772621L12.6815 1.26968L12.879 1.30409L12.9656 0.807037L13.0522 0.30998L12.8547 0.275565L12.7681 0.772621ZM12.9656 0.807037L12.879 1.30409C13.0509 1.33405 13.2231 1.34269 13.3944 1.32788L13.3509 0.825209L13.3074 0.322539C13.2283 0.329381 13.1437 0.325915 13.0522 0.30998L12.9656 0.807037ZM13.3509 0.825209L13.3944 1.32788L13.5822 1.31163L13.5387 0.808965L13.4952 0.306295L13.3074 0.322539L13.3509 0.825209ZM13.5387 0.808965L13.5822 1.31163L13.77 1.29539L13.7265 0.792721L13.683 0.290051L13.4952 0.306295L13.5387 0.808965ZM13.7265 0.792721L13.77 1.29539C13.8384 1.28947 13.9088 1.29465 13.9831 1.31292L14.1035 0.822927L14.2238 0.332936C14.0459 0.289266 13.865 0.274313 13.683 0.290051L13.7265 0.792721ZM14.1035 0.822927L13.9831 1.31292L14.1723 1.35937L14.2926 0.869377L14.413 0.379386L14.2238 0.332936L14.1035 0.822927ZM14.2926 0.869377L14.1723 1.35937L14.3615 1.40582L14.4818 0.915827L14.6021 0.425836L14.413 0.379386L14.2926 0.869377ZM14.4818 0.915827L14.3615 1.40582C14.5587 1.45426 14.7598 1.45909 14.9593 1.41839L14.8585 0.924028L14.7576 0.429663C14.7071 0.439968 14.6571 0.439332 14.6021 0.425836L14.4818 0.915827ZM14.8585 0.924028L14.9593 1.41839L15.1468 1.38014L15.046 0.88578L14.9451 0.391415L14.7576 0.429663L14.8585 0.924028ZM15.046 0.88578L15.1468 1.38014L15.3343 1.3419L15.2335 0.847531L15.1326 0.353166L14.9451 0.391415L15.046 0.88578ZM15.2335 0.847531L15.3343 1.3419C15.5004 1.30801 15.6642 1.25301 15.8251 1.18024L15.6172 0.720513L15.4093 0.26079C15.3085 0.306375 15.2165 0.336059 15.1326 0.353166L15.2335 0.847531ZM15.6172 0.720513L15.8251 1.18024L16.0214 1.09147L15.8135 0.631743L15.6056 0.17202L15.4093 0.26079L15.6172 0.720513ZM15.8135 0.631743L16.0214 1.09147L16.2177 1.0027L16.0098 0.542973L15.8019 0.0832505L15.6056 0.17202L15.8135 0.631743ZM16.0098 0.542973L16.2177 1.0027C16.2182 1.00248 16.1988 1.01079 16.1662 1.00849C16.1332 1.00617 16.1133 0.994875 16.1109 0.993271L16.3845 0.569399L16.6582 0.145527C16.3928 -0.0258693 16.0862 -0.0453295 15.8019 0.0832505L16.0098 0.542973ZM16.3845 0.569399L16.1109 0.993271L16.2893 1.10847L16.5629 0.684594L16.8366 0.260722L16.6582 0.145527L16.3845 0.569399ZM16.5629 0.684594L16.2893 1.10847L16.4677 1.22366L16.7414 0.799789L17.015 0.375917L16.8366 0.260722L16.5629 0.684594ZM16.7414 0.799789L16.4677 1.22366C16.6488 1.34058 16.8514 1.41584 17.0713 1.43217L17.1086 0.929005L17.146 0.425843C17.1141 0.423473 17.0718 0.41259 17.015 0.375917L16.7414 0.799789ZM17.1086 0.929005L17.0713 1.43217L17.2601 1.44619L17.2975 0.943025L17.3348 0.439862L17.146 0.425843L17.1086 0.929005ZM17.2975 0.943025L17.2601 1.44619L17.4489 1.46021L17.4863 0.957045L17.5237 0.453882L17.3348 0.439862L17.2975 0.943025ZM17.4863 0.957045L17.4489 1.46021C17.5759 1.46963 17.7038 1.47872 17.8326 1.48746L17.8668 0.984067L17.901 0.480677C17.7742 0.47208 17.6485 0.463149 17.5237 0.453882L17.4863 0.957045ZM17.8668 0.984067L17.8326 1.48746L18.0243 1.50046L18.0584 0.99707L18.0926 0.49368L17.901 0.480677L17.8668 0.984067ZM18.0584 0.99707L18.0243 1.50046L18.2159 1.51346L18.2501 1.01007L18.2843 0.506683L18.0926 0.49368L18.0584 0.99707ZM18.2501 1.01007L18.2159 1.51346C18.2507 1.51582 18.2836 1.52595 18.3219 1.55211L18.6063 1.13534L18.8906 0.718564C18.7096 0.595041 18.505 0.521663 18.2843 0.506683L18.2501 1.01007ZM18.6063 1.13534L18.3219 1.55211L18.4864 1.66437L18.7708 1.2476L19.0552 0.830824L18.8906 0.718564L18.6063 1.13534ZM18.7708 1.2476L18.4864 1.66437L18.6509 1.77663L18.9353 1.35986L19.2197 0.943084L19.0552 0.830824L18.7708 1.2476ZM18.9353 1.35986L18.6509 1.77663C18.7998 1.8782 18.9599 1.95695 19.1306 2.0095L19.2791 1.52728L19.4275 1.04506C19.3593 1.02406 19.2902 0.991191 19.2197 0.943084L18.9353 1.35986ZM19.2791 1.52728L19.1306 2.0095L19.3099 2.06466L19.4583 1.58244L19.6067 1.10022L19.4275 1.04506L19.2791 1.52728ZM19.4583 1.58244L19.3099 2.06466L19.4891 2.11983L19.6375 1.63761L19.7859 1.15539L19.6067 1.10022L19.4583 1.58244ZM19.6375 1.63761L19.4891 2.11983C19.6221 2.16077 19.7575 2.19633 19.8953 2.22656L20.0034 1.73374L20.1116 1.24092C20.0004 1.21653 19.8919 1.188 19.7859 1.15539L19.6375 1.63761ZM20.0034 1.73374L19.8953 2.22656L20.0819 2.26753L20.1901 1.77471L20.2982 1.28189L20.1116 1.24092L20.0034 1.73374ZM20.1901 1.77471L20.0819 2.26753L20.2686 2.30849L20.3768 1.81567L20.4849 1.32286L20.2982 1.28189L20.1901 1.77471ZM20.3768 1.81567L20.2686 2.30849C20.2943 2.31412 20.318 2.32517 20.3467 2.35402L20.7042 1.99804L21.0618 1.64206C20.9028 1.48238 20.7082 1.37185 20.4849 1.32286L20.3768 1.81567ZM20.7042 1.99804L20.3467 2.35402L20.4875 2.49542L20.845 2.13944L21.2026 1.78346L21.0618 1.64206L20.7042 1.99804ZM20.845 2.13944L20.4875 2.49542L20.6282 2.63682L20.9858 2.28084L21.3433 1.92486L21.2026 1.78346L20.845 2.13944ZM20.9858 2.28084L20.6282 2.63682C20.7761 2.78538 20.9524 2.89628 21.154 2.96056L21.3073 2.47986L21.4606 1.99915C21.4212 1.98661 21.3831 1.96483 21.3433 1.92486L20.9858 2.28084ZM21.3073 2.47986L21.154 2.96056L21.3348 3.01819L21.488 2.53748L21.6413 2.05677L21.4606 1.99915L21.3073 2.47986ZM21.488 2.53748L21.3348 3.01819L21.5155 3.07581L21.6688 2.5951L21.822 2.1144L21.6413 2.05677L21.488 2.53748ZM21.6688 2.5951L21.5155 3.07581C21.6155 3.10769 21.7127 3.14571 21.8074 3.18989L22.0208 2.73273L22.2343 2.27557C22.1005 2.21308 21.963 2.15934 21.822 2.1144L21.6688 2.5951ZM22.0208 2.73273L21.8074 3.18989L21.9787 3.2699L22.1922 2.81274L22.4057 2.35558L22.2343 2.27557L22.0208 2.73273ZM22.1922 2.81274L21.9787 3.2699L22.15 3.34991L22.3635 2.89275L22.577 2.4356L22.4057 2.35558L22.1922 2.81274ZM22.3635 2.89275L22.15 3.34991C22.2775 3.40942 22.4088 3.46403 22.544 3.51384L22.7184 3.04042L22.8929 2.56699C22.7833 2.5266 22.678 2.48277 22.577 2.4356L22.3635 2.89275ZM22.7184 3.04042L22.544 3.51384L22.7276 3.58149L22.902 3.10807L23.0765 2.63465L22.8929 2.56699L22.7184 3.04042ZM22.902 3.10807L22.7276 3.58149L22.9111 3.64915L23.0856 3.17572L23.2601 2.7023L23.0765 2.63465L22.902 3.10807ZM23.0856 3.17572L22.9111 3.64915C23.0168 3.68808 23.1201 3.73249 23.221 3.78239L23.4446 3.33008L23.6682 2.87778C23.5353 2.81207 23.3992 2.75357 23.2601 2.7023L23.0856 3.17572ZM23.4446 3.33008L23.221 3.78239L23.3964 3.86909L23.62 3.41679L23.8436 2.96449L23.6682 2.87778L23.4446 3.33008ZM23.62 3.41679L23.3964 3.86909L23.5718 3.9558L23.7954 3.5035L24.019 3.05119L23.8436 2.96449L23.62 3.41679ZM23.7954 3.5035L23.5718 3.9558C23.6415 3.99024 23.702 4.03329 23.7552 4.08559L24.1087 3.72553L24.4621 3.36547C24.3316 3.23733 24.1832 3.13237 24.019 3.05119L23.7954 3.5035ZM24.1087 3.72553L23.7552 4.08559L23.8931 4.22092L24.2465 3.86086L24.6 3.50079L24.4621 3.36547L24.1087 3.72553ZM24.2465 3.86086L23.8931 4.22092L24.031 4.35625L24.3844 3.99618L24.7378 3.63612L24.6 3.50079L24.2465 3.86086ZM24.3844 3.99618L24.031 4.35625C24.0916 4.41582 24.1453 4.48374 24.192 4.56136L24.6244 4.30136L25.0568 4.04135C24.9673 3.89251 24.861 3.75699 24.7378 3.63612L24.3844 3.99618ZM24.6244 4.30136L24.192 4.56136L24.2941 4.73121L24.7265 4.4712L25.1589 4.21119L25.0568 4.04135L24.6244 4.30136ZM24.7265 4.4712L24.2941 4.73121L24.3963 4.90106L24.8287 4.64105L25.2611 4.38104L25.1589 4.21119L24.7265 4.4712ZM24.8287 4.64105L24.3963 4.90106C24.5002 5.07386 24.6359 5.22037 24.8015 5.33594L25.0903 4.92218L25.379 4.50842C25.332 4.47561 25.2933 4.4347 25.2611 4.38104L24.8287 4.64105ZM25.0903 4.92218L24.8015 5.33594L24.961 5.44722L25.2497 5.03346L25.5385 4.6197L25.379 4.50842L25.0903 4.92218ZM25.2497 5.03346L24.961 5.44722L25.1204 5.5585L25.4092 5.14475L25.6979 4.73099L25.5385 4.6197L25.2497 5.03346ZM25.4092 5.14475L25.1204 5.5585C25.143 5.57422 25.1596 5.59308 25.1736 5.62857L25.6426 5.44252L26.1116 5.25647C26.0271 5.0433 25.888 4.86365 25.6979 4.73099L25.4092 5.14475ZM25.6426 5.44252L25.1736 5.62857L25.2476 5.81506L25.7166 5.62901L26.1856 5.44296L26.1116 5.25647L25.6426 5.44252ZM25.7166 5.62901L25.2476 5.81506L25.3216 6.00155L25.7906 5.8155L26.2596 5.62945L26.1856 5.44296L25.7166 5.62901ZM25.7906 5.8155L25.3216 6.00155C25.4151 6.23712 25.5803 6.42101 25.7981 6.54329L26.0451 6.10335L26.2921 5.66341C26.2692 5.65054 26.2648 5.64253 26.2596 5.62945L25.7906 5.8155ZM26.0451 6.10335L25.7981 6.54329L25.9786 6.64465L26.2256 6.20471L26.4726 5.76477L26.2921 5.66341L26.0451 6.10335ZM26.2256 6.20471L25.9786 6.64465L26.1591 6.74601L26.4061 6.30607L26.6532 5.86614L26.4726 5.76477L26.2256 6.20471ZM26.4061 6.30607L26.1591 6.74601C26.1597 6.74633 26.1479 6.73933 26.1359 6.722C26.1239 6.70485 26.1223 6.69275 26.1229 6.69641L26.6207 6.61453L27.1186 6.53266C27.0714 6.24576 26.9093 6.00996 26.6532 5.86614L26.4061 6.30607ZM26.6207 6.61453L26.1229 6.69641L26.1569 6.90351L26.6548 6.82163L27.1526 6.73976L27.1186 6.53266L26.6207 6.61453ZM26.6548 6.82163L26.1569 6.90351L26.191 7.1106L26.6888 7.02873L27.1867 6.94686L27.1526 6.73976L26.6548 6.82163ZM26.6888 7.02873L26.191 7.1106C26.2281 7.33611 26.3219 7.54497 26.4806 7.71835L26.8527 7.37766L27.2249 7.03697C27.2105 7.02125 27.195 6.99748 27.1867 6.94686L26.6888 7.02873ZM26.8527 7.37766L26.4806 7.71835L26.6104 7.86019L26.9826 7.5195L27.3547 7.17881L27.2249 7.03697L26.8527 7.37766ZM26.9826 7.5195L26.6104 7.86019L26.7403 8.00202L27.1124 7.66133L27.4846 7.32064L27.3547 7.17881L26.9826 7.5195ZM27.1124 7.66133L26.7403 8.00202C26.7768 8.04193 26.8018 8.08536 26.8178 8.13692L27.2995 7.98667L27.7812 7.83642C27.7209 7.64331 27.6212 7.46984 27.4846 7.32064L27.1124 7.66133ZM27.2995 7.98667L26.8178 8.13692L26.8751 8.32043L27.3567 8.17018L27.8384 8.01993L27.7812 7.83642L27.2995 7.98667ZM27.3567 8.17018L26.8751 8.32043L26.9323 8.50394L27.414 8.35369L27.8956 8.20344L27.8384 8.01993L27.3567 8.17018ZM27.414 8.35369L26.9323 8.50394C26.9993 8.71863 27.1219 8.90155 27.2859 9.0496L27.624 8.67509L27.9621 8.30058C27.9224 8.26478 27.905 8.23343 27.8956 8.20344L27.414 8.35369ZM27.624 8.67509L27.2859 9.0496L27.4386 9.18749L27.7767 8.81298L28.1148 8.43847L27.9621 8.30058L27.624 8.67509ZM27.7767 8.81298L27.4386 9.18749L27.5914 9.32538L27.9295 8.95087L28.2676 8.57636L28.1148 8.43847L27.7767 8.81298ZM27.9295 8.95087L27.5914 9.32538C27.5941 9.32782 27.5939 9.32806 27.5921 9.32575C27.5903 9.32335 27.5878 9.31943 27.5855 9.31426C27.5831 9.30909 27.5817 9.3044 27.581 9.30097C27.5803 9.29765 27.5805 9.29699 27.5805 9.2998L28.085 9.29277L28.5895 9.28574C28.5857 9.00807 28.4725 8.7614 28.2676 8.57636L27.9295 8.95087ZM28.085 9.29277L27.5805 9.2998L27.5834 9.50381L28.0879 9.49678L28.5924 9.48975L28.5895 9.28574L28.085 9.29277ZM28.0879 9.49678L27.5834 9.50381L27.5862 9.70782L28.0907 9.70079L28.5952 9.69377L28.5924 9.48975L28.0879 9.49678ZM28.0907 9.70079L27.5862 9.70782C27.5893 9.9268 27.6449 10.1373 27.7581 10.3282L28.192 10.0708L28.626 9.81333C28.6079 9.78293 28.596 9.7468 28.5952 9.69377L28.0907 9.70079ZM28.192 10.0708L27.7581 10.3282L27.8566 10.4942L28.2905 10.2368L28.7244 9.97932L28.626 9.81333L28.192 10.0708ZM28.2905 10.2368L27.8566 10.4942L27.9551 10.6602L28.389 10.4028L28.8229 10.1453L28.7244 9.97932L28.2905 10.2368ZM28.389 10.4028L27.9551 10.6602C27.9567 10.6629 27.9573 10.6644 27.9575 10.6649C27.9576 10.6653 27.9578 10.6658 27.9579 10.6666C27.9581 10.6676 27.9595 10.6756 27.9566 10.6939L28.4548 10.7734L28.953 10.853C28.9919 10.6094 28.9534 10.3651 28.8229 10.1453L28.389 10.4028ZM28.4548 10.7734L27.9566 10.6939L27.9239 10.8986L28.4221 10.9781L28.9203 11.0577L28.953 10.853L28.4548 10.7734ZM28.4221 10.9781L27.9239 10.8986L27.8912 11.1033L28.3894 11.1828L28.8876 11.2624L28.9203 11.0577L28.4221 10.9781ZM28.3894 11.1828L27.8912 11.1033C27.8455 11.3894 27.9254 11.6594 28.1106 11.8764L28.4943 11.5488L28.8781 11.2213C28.8755 11.2182 28.876 11.2183 28.8778 11.2215C28.8797 11.225 28.8822 11.2305 28.8843 11.2376C28.8863 11.2448 28.8873 11.2515 28.8876 11.2568C28.8878 11.262 28.8874 11.2641 28.8876 11.2624L28.3894 11.1828ZM28.4943 11.5488L28.1106 11.8764L28.2482 12.0376L28.632 11.7101L29.0157 11.3825L28.8781 11.2213L28.4943 11.5488ZM28.632 11.7101L28.2482 12.0376L28.3859 12.1989L28.7696 11.8713L29.1534 11.5438L29.0157 11.3825L28.632 11.7101ZM28.7696 11.8713L28.3859 12.1989C28.429 12.2495 28.4459 12.2902 28.4528 12.3233L28.9466 12.2194L29.4403 12.1155C29.3949 11.8995 29.2938 11.7082 29.1534 11.5438L28.7696 11.8713ZM28.9466 12.2194L28.4528 12.3233L28.4922 12.5101L28.9859 12.4062L29.4796 12.3023L29.4403 12.1155L28.9466 12.2194ZM28.9859 12.4062L28.4922 12.5101L28.5315 12.6969L29.0252 12.593L29.5189 12.4891L29.4796 12.3023L28.9859 12.4062ZM29.0252 12.593L28.5315 12.6969C28.5338 12.7078 28.5372 12.732 28.5155 12.7834L28.9805 12.9792L29.4455 13.175C29.5358 12.9605 29.569 12.7272 29.5189 12.4891L29.0252 12.593ZM28.9805 12.9792L28.5155 12.7834L28.4315 12.9828L28.8965 13.1786L29.3615 13.3744L29.4455 13.175L28.9805 12.9792ZM28.8965 13.1786L28.4315 12.9828L28.3476 13.1822L28.8126 13.378L29.2776 13.5738L29.3615 13.3744L28.8965 13.1786ZM28.8126 13.378L28.3476 13.1822C28.2863 13.3276 28.2602 13.492 28.2917 13.6635C28.3226 13.8319 28.4027 13.9726 28.4987 14.0848L28.882 13.7568L29.2654 13.4288C29.2591 13.4214 29.2765 13.4392 29.2842 13.4814C29.2925 13.5265 29.2828 13.5614 29.2776 13.5738L28.8126 13.378ZM28.882 13.7568L28.4987 14.0848L28.6521 14.2642L29.0355 13.9361L29.4189 13.6081L29.2654 13.4288L28.882 13.7568ZM29.0355 13.9361L28.6521 14.2642L28.8056 14.4435L29.189 14.1155L29.5723 13.7875L29.4189 13.6081L29.0355 13.9361ZM29.189 14.1155L28.8056 14.4435C28.8304 14.4724 28.8254 14.4752 28.8172 14.4516C28.8126 14.4383 28.8071 14.417 28.8057 14.389C28.8043 14.3603 28.8075 14.3296 28.8163 14.2991L29.3012 14.4383L29.7862 14.5776C29.8829 14.2406 29.7184 13.9582 29.5723 13.7875L29.189 14.1155ZM29.3012 14.4383L28.8163 14.2991L28.7751 14.4426L29.26 14.5819L29.7449 14.7211L29.7862 14.5776L29.3012 14.4383ZM29.26 14.5819L28.7751 14.4426L28.7338 14.5861L29.2188 14.7254L29.7037 14.8646L29.7449 14.7211L29.26 14.5819ZM29.2188 14.7254L28.7338 14.5861C28.722 14.6272 28.7178 14.6349 28.7224 14.6247C28.7235 14.6223 28.738 14.5889 28.77 14.5482C28.7863 14.5274 28.8199 14.4883 28.8735 14.4513C28.9285 14.4133 29.0249 14.3643 29.1537 14.3643V14.8689V15.3734C29.4077 15.3734 29.5437 15.1968 29.5635 15.1716C29.6049 15.1189 29.6295 15.0676 29.6414 15.0413C29.6677 14.9833 29.6881 14.9192 29.7037 14.8646L29.2188 14.7254ZM29.1537 14.8689V14.3643H29.1299V14.8689V15.3734H29.1537V14.8689ZM29.1299 14.8689V14.3643H29.1061V14.8689V15.3734H29.1299V14.8689ZM29.1061 14.8689V14.3643C28.9367 14.3643 28.8222 14.4457 28.7739 14.4864C28.722 14.5304 28.6895 14.5753 28.6735 14.599C28.6407 14.6479 28.6198 14.6954 28.609 14.7214C28.5848 14.7795 28.563 14.8483 28.5436 14.9154L29.0283 15.0555L29.513 15.1956C29.5207 15.1689 29.5271 15.1482 29.5323 15.1326C29.5348 15.125 29.5369 15.1192 29.5384 15.115C29.5399 15.1108 29.5406 15.1092 29.5404 15.1096C29.5403 15.1098 29.5385 15.1142 29.5349 15.1214C29.5317 15.1279 29.5239 15.1429 29.511 15.162C29.5003 15.1779 29.4727 15.2171 29.4253 15.2571C29.3817 15.294 29.2714 15.3734 29.1061 15.3734V14.8689ZM29.0283 15.0555L28.5436 14.9154L28.4897 15.102L28.9744 15.2421L29.4591 15.3822L29.513 15.1956L29.0283 15.0555Z" fill="#A4A4A4"/>
<path d="M14.3548 8.23239H15.4457V9.3233H17.6276V10.4142H15.4457V13.6869H17.6276V14.7779H15.4457V19.1415H17.6276V20.2324H15.4457V21.3233H14.3548V20.2324H12.173V19.1415H14.3548V14.7779H12.173V13.6869H14.3548V10.4142H12.173V9.3233H14.3548V8.23239ZM11.0821 10.4142H12.173V13.6869H11.0821V10.4142ZM17.6276 10.4142H18.7185V11.5051H17.6276V10.4142ZM17.6276 14.7779H18.7185V19.1415H17.6276V14.7779ZM11.0821 18.0506H12.173V19.1415H11.0821V18.0506Z" fill="#A4A4A4"/>
</svg>
